<svg width="69" height="69" viewBox="0 0 69 69" fill="none" xmlns="http://www.w3.org/2000/svg">
<g filter="url(#filter0_d_11929_49902)">
<path fill-rule="evenodd" clip-rule="evenodd" d="M29.105 12.1445C31.7187 11.8486 34.255 11.9982 36.728 12.6762C39.3132 13.4087 41.6431 14.6249 43.6816 16.3237C46.646 18.794 48.7762 21.7144 49.938 25.2929C50.5205 27.1394 50.8142 29.0442 50.8638 31.0146C50.9126 33.4777 50.5682 35.8644 49.7461 38.1381C49.173 39.714 48.3546 41.2166 47.3731 42.6455C47.3675 42.6524 47.362 42.6607 47.3555 42.6689C47.2976 42.7418 47.2041 42.8577 47.1548 42.9267C47.1531 42.9291 47.1513 42.9322 47.1489 42.9355C47.0837 43.0254 46.7714 43.4568 46.8179 44.0634C46.8635 44.657 47.2264 45.0345 47.2983 45.1093C47.3014 45.1125 47.3037 45.116 47.3057 45.1181C47.3519 45.1672 47.4619 45.2744 47.5269 45.3378C47.5492 45.3596 47.5664 45.376 47.5737 45.3833L54.479 52.29C54.573 52.384 54.4204 52.2299 54.5142 52.3237L56.4507 54.2602C57.3306 55.1402 56.9924 56.5301 55.8384 56.9218C55.29 57.0932 54.8003 56.9931 54.252 56.4853C51.313 53.4941 48.3218 50.5039 45.3369 47.519L45.3355 47.5175C45.1945 47.3766 44.7997 46.9898 44.1782 46.9067C43.5156 46.8183 43.0153 47.1153 42.7427 47.3256C40.1065 49.2242 37.2602 50.374 34.084 50.7109L34.0693 50.7124C30.6479 51.109 27.3358 50.8059 24.1948 49.5507C22.0543 48.6743 20.156 47.4585 18.4453 45.8945L18.4351 45.8857C16.5226 44.1693 15.0161 42.2232 13.8984 39.9414C12.8812 37.808 12.293 35.5677 12.0454 33.206C12.0003 32.6542 12 32.0905 12 31.2959C12.0001 28.3073 12.6367 25.3393 14.0435 22.5742L14.0479 22.5654C15.1515 20.3581 16.6993 18.5077 18.5918 16.8144L18.6064 16.7998C19.8114 15.6912 21.1653 14.7726 22.6216 14.0444C24.6895 13.0104 26.8168 12.3387 29.064 12.1474L29.105 12.1445ZM31.5732 14.9834C22.48 14.9254 15.0462 22.5984 14.9883 31.3398V31.3486C14.9883 40.3116 22.4809 47.8716 31.4575 47.872C40.3961 47.872 48.03 40.3512 47.8755 31.4584C48.0879 22.4992 40.3915 15.0411 31.5732 14.9834Z" fill="white"/>
<path d="M44.0522 48.414C44.125 48.443 44.1973 48.5005 44.2764 48.5795C47.0686 51.3718 49.8588 54.1662 52.6084 56.9585C49.8583 54.1657 47.0677 51.3708 44.2749 48.5781C44.1962 48.4993 44.1245 48.443 44.0522 48.414Z" fill="white"/>
<path d="M31.3189 19.9565C39.1449 19.9568 34.1773 29.6193 39.103 31.5068C36.6802 31.5068 36.3631 32.5116 33.8296 32.5117C33.8296 33.1644 33.3968 34.5374 35.375 35.6391C36.5195 36.2765 37.8431 36.6097 39.0752 37.0717C39.8103 37.3343 40.5459 37.6485 41.2285 37.9111C41.9638 38.2262 41.9635 38.3323 41.4907 38.9101C40.3353 40.4331 38.9172 41.6938 37.1841 42.5341C35.8186 43.2694 34.3475 43.6888 32.772 43.7939C32.2992 43.9515 31.878 43.9521 31.4053 43.9521C29.1468 43.952 26.9927 43.4272 25.0493 42.2192C23.4736 41.2212 22.1081 39.9602 21.0576 38.437C20.8475 38.1743 20.8479 38.1216 21.1631 38.0166C22.6337 37.3863 24.1046 36.8616 25.5752 36.3364C26.1034 36.1383 26.6501 35.9755 27.147 35.708C29.2476 34.5768 28.8081 33.1768 28.8081 32.5117C26.2746 32.5117 25.9572 31.5069 23.5347 31.5068C28.4597 29.6188 23.4925 19.9565 31.3189 19.9565Z" fill="white"/>
</g>
<defs>
<filter id="filter0_d_11929_49902" x="-1.52344" y="-1.5" width="72" height="72" filterUnits="userSpaceOnUse" color-interpolation-filters="sRGB">
<feFlood flood-opacity="0" result="BackgroundImageFix"/>
<feColorMatrix in="SourceAlpha" type="matrix" values="0 0 0 0 0 0 0 0 0 0 0 0 0 0 0 0 0 0 127 0" result="hardAlpha"/>
<feOffset/>
<feGaussianBlur stdDeviation="6"/>
<feComposite in2="hardAlpha" operator="out"/>
<feColorMatrix type="matrix" values="0 0 0 0 1 0 0 0 0 0.307487 0 0 0 0 0.480615 0 0 0 1 0"/>
<feBlend mode="normal" in2="BackgroundImageFix" result="effect1_dropShadow_11929_49902"/>
<feBlend mode="normal" in="SourceGraphic" in2="effect1_dropShadow_11929_49902" result="shape"/>
</filter>
</defs>
</svg>
