<svg width="48" height="48" viewBox="0 0 48 48" fill="none" xmlns="http://www.w3.org/2000/svg">
<path d="M39.2451 11C41.9617 11 44.1641 13.2024 44.1641 15.9189V27.9424C44.1641 30.659 41.9617 32.8613 39.2451 32.8613H28.3711C29.4235 34.1539 30.2657 35.7413 30.3623 37.4697C30.5487 40.8022 28.0222 43.0627 25.1328 42.8457C20.0792 42.4649 16.9318 37.4663 11.3301 36.166C7.9132 35.3728 4.32026 38.0802 2.93457 43.4971C3.47313 43.9542 4.97172 43.0258 4.99902 43.0088C4.94452 44.4474 3.17711 44.6124 2.7168 46.2119C2.57581 46.7962 2.21499 47.304 1.70898 47.6289C1.20282 47.9538 0.590488 48.071 0 47.9561C0.706335 47.2708 0.721348 45.6861 0.625 45.0986C0.191144 42.4518 0.597864 41.2973 1.27637 40.6455C1.24917 42.323 1.92392 42.8682 1.92871 42.8721C4.37391 36.2473 7.96031 34.9166 10.833 34.999C16.1723 35.1525 20.6235 40.3299 24.3096 40.835C26.9747 41.2005 28.3053 40.0102 28.3076 37.7266C28.3102 35.7483 26.2989 33.9664 24.7021 32.8613H11.9189C9.20239 32.8613 7 30.659 7 27.9424V15.9189C7 13.2024 9.20239 11 11.9189 11H39.2451ZM12.4648 28.4893H32.1406V26.3027H12.4648V28.4893ZM12.4648 23.0234H38.6982V20.8379H12.4648V23.0234ZM12.4658 17.5586H36.5127V15.3721H12.4658V17.5586ZM4.3877 0C5.03929 3.20144 7.82154 6.0107 11.1016 7.67773C8.19133 7.92568 5.78113 9.92746 4.93359 12.6221C2.83766 8.27143 3.42803 3.77226 4.3877 0ZM46.3643 0C47.3239 3.77229 47.9134 8.27141 45.8174 12.6221C44.9698 9.9275 42.5596 7.92567 39.6494 7.67773C42.9295 6.01068 45.7127 3.20148 46.3643 0Z" fill="white"/>
</svg>
