<svg width="24" height="24" viewBox="0 0 24 24" fill="none" xmlns="http://www.w3.org/2000/svg">
<g clip-path="url(#clip0_2957_9360)">
<path fill-rule="evenodd" clip-rule="evenodd" d="M2.0521 0C2.37789 1.60073 3.76919 3.00513 5.40924 3.83865C3.95408 3.96262 2.74914 4.96376 2.32538 6.31109C1.27733 4.13575 1.57226 1.88615 2.0521 0ZM3.25539 7.37811C3.25539 6.01983 4.3565 4.91872 5.7148 4.91872H19.3782C20.7365 4.91872 21.8376 6.01983 21.8376 7.37811V13.3899C21.8376 14.7482 20.7365 15.8493 19.3782 15.8493H14.2764C15.0336 16.5674 15.7563 17.5897 15.8208 18.735C15.9149 20.4014 14.6417 21.5316 13.1858 21.4231C11.8518 21.3233 10.7815 20.5899 9.65895 19.8207C8.6387 19.1216 7.57525 18.3929 6.23143 18.0833C4.50981 17.6867 2.69942 19.0404 2.00124 21.7488C2.27504 21.9796 3.04164 21.5045 3.04164 21.5045C3.02751 21.8764 2.78273 22.0781 2.51748 22.2967C2.26956 22.501 2.00377 22.72 1.89175 23.1065C1.82069 23.3987 1.63869 23.6525 1.38366 23.8149C1.12863 23.9773 0.820225 24.0359 0.522705 23.9785C0.878673 23.6359 0.886142 22.8435 0.837593 22.5498C0.618954 21.2263 0.824013 20.6492 1.16589 20.3233C1.15214 21.165 1.49436 21.4365 1.49436 21.4365C2.72641 18.1239 4.53358 17.4588 5.98104 17.5C7.51681 17.5439 8.90669 18.4062 10.1623 19.1851C11.1061 19.7707 11.9741 20.3092 12.7711 20.4176C14.114 20.6004 14.7843 20.0056 14.7855 18.8638C14.7879 17.2263 12.0113 15.8549 12 15.8493H5.7148C4.3565 15.8493 3.25539 14.7482 3.25539 13.3899V7.37811ZM5.98809 7.10486H18.0119V8.19792H5.98809V7.10486ZM5.98807 9.83752H19.1049V10.9306H5.98807V9.83752ZM15.8257 12.5702H5.98807V13.6632H15.8257V12.5702ZM19.6837 3.83865C21.3238 3.00513 22.7151 1.60073 23.0409 0C23.5207 1.88615 23.8156 4.13574 22.7676 6.31108C22.3438 4.96375 21.1389 3.96262 19.6837 3.83865Z" fill="white"/>
</g>
<defs>
<clipPath id="clip0_2957_9360">
<rect width="24" height="24" fill="white"/>
</clipPath>
</defs>
</svg>
