<svg width="220" height="154" viewBox="0 0 220 154" fill="none" xmlns="http://www.w3.org/2000/svg">
<path d="M128.139 18.2969C131.534 18.2969 134.287 21.0496 134.287 24.4453V39.4746C134.287 42.8704 131.534 45.623 128.139 45.623H115.382C117.275 47.4182 119.084 49.9739 119.245 52.8379C119.48 57.0039 116.297 59.8291 112.657 59.5576C106.292 59.0815 102.327 52.8343 95.2715 51.209C90.9676 50.2175 86.4418 53.6011 84.6963 60.3721C85.3758 60.9448 87.2691 59.7789 87.2969 59.7617C87.2285 61.5604 85.0026 61.7667 84.4229 63.7666C84.2452 64.4972 83.7899 65.132 83.1523 65.5381C82.5148 65.9441 81.7437 66.0899 81 65.9463C81.8897 65.0898 81.9084 63.1095 81.7871 62.375C81.2405 59.0662 81.7537 57.6234 82.6084 56.8086C82.5743 58.8948 83.4143 59.5802 83.4287 59.5918C86.5087 51.3103 91.0269 49.647 94.6455 49.75C101.371 49.9419 106.978 56.4127 111.621 57.0439C114.978 57.5008 116.654 56.0144 116.657 53.1602C116.662 49.5708 111.326 46.4926 109.992 45.7793L109.693 45.623H93.9805C90.5848 45.623 87.832 42.8703 87.832 39.4746V24.4453C87.832 21.0496 90.5848 18.2969 93.9805 18.2969H128.139ZM94.6641 40.1582H119.258V37.4248H94.6641V40.1582ZM94.6641 33.3262H127.456V30.5938H94.6641V33.3262ZM94.6641 26.4941H124.723V23.7617H94.6641V26.4941ZM84.8242 6C85.6387 10.0018 89.1167 13.5129 93.2168 15.5967C89.5789 15.9066 86.5662 18.4099 85.5068 21.7783C82.8867 16.3399 83.6246 10.7155 84.8242 6ZM137.295 6C138.495 10.7154 139.232 16.3399 136.612 21.7783C135.553 18.41 132.54 15.9066 128.902 15.5967C133.002 13.5129 136.48 10.0018 137.295 6Z" fill="white"/>
<path d="M21.38 105.55C21.2187 105.755 21.0573 105.916 20.896 106.034C20.7493 106.151 20.5293 106.21 20.236 106.21C19.9573 106.21 19.686 106.129 19.422 105.968C19.158 105.792 18.8427 105.601 18.476 105.396C18.1093 105.176 17.6693 104.985 17.156 104.824C16.6573 104.648 16.034 104.56 15.286 104.56C14.3327 104.56 13.4967 104.736 12.778 105.088C12.0593 105.425 11.458 105.916 10.974 106.562C10.5047 107.207 10.1527 107.992 9.918 108.916C9.68334 109.825 9.566 110.859 9.566 112.018C9.566 113.22 9.69067 114.291 9.94 115.23C10.204 116.168 10.578 116.96 11.062 117.606C11.546 118.236 12.1327 118.72 12.822 119.058C13.5113 119.38 14.2887 119.542 15.154 119.542C16.0193 119.542 16.716 119.439 17.244 119.234C17.7867 119.014 18.2413 118.779 18.608 118.53C18.9747 118.266 19.29 118.031 19.554 117.826C19.8327 117.606 20.1407 117.496 20.478 117.496C20.918 117.496 21.248 117.664 21.468 118.002L23.03 119.982C22.4287 120.686 21.776 121.28 21.072 121.764C20.368 122.233 19.6347 122.614 18.872 122.908C18.124 123.186 17.3467 123.384 16.54 123.502C15.748 123.619 14.956 123.678 14.164 123.678C12.7707 123.678 11.458 123.421 10.226 122.908C8.994 122.38 7.916 121.617 6.992 120.62C6.068 119.622 5.33467 118.405 4.792 116.968C4.264 115.516 4 113.866 4 112.018C4 110.36 4.23467 108.828 4.704 107.42C5.188 105.997 5.892 104.772 6.816 103.746C7.74 102.704 8.884 101.89 10.248 101.303C11.612 100.717 13.1813 100.423 14.956 100.423C16.6427 100.423 18.1167 100.695 19.378 101.238C20.654 101.78 21.798 102.558 22.81 103.57L21.38 105.55Z" fill="white"/>
<path d="M37.9206 113.712C36.3512 113.785 35.0312 113.924 33.9606 114.13C32.8899 114.32 32.0319 114.57 31.3866 114.878C30.7412 115.186 30.2792 115.545 30.0006 115.956C29.7219 116.366 29.5826 116.814 29.5826 117.298C29.5826 118.251 29.8612 118.933 30.4186 119.344C30.9906 119.754 31.7312 119.96 32.6406 119.96C33.7552 119.96 34.7159 119.762 35.5226 119.366C36.3439 118.955 37.1432 118.339 37.9206 117.518V113.712ZM25.4686 103.922C28.0646 101.545 31.1886 100.357 34.8406 100.357C36.1606 100.357 37.3412 100.577 38.3826 101.017C39.4239 101.443 40.3039 102.044 41.0226 102.822C41.7412 103.584 42.2839 104.501 42.6506 105.572C43.0319 106.642 43.2226 107.816 43.2226 109.092V123.348H40.7586C40.2452 123.348 39.8492 123.274 39.5706 123.128C39.2919 122.966 39.0719 122.651 38.9106 122.182L38.4266 120.554C37.8546 121.067 37.2972 121.522 36.7546 121.918C36.2119 122.299 35.6472 122.622 35.0606 122.886C34.4739 123.15 33.8432 123.348 33.1686 123.48C32.5086 123.626 31.7752 123.7 30.9686 123.7C30.0152 123.7 29.1352 123.575 28.3286 123.326C27.5219 123.062 26.8252 122.673 26.2386 122.16C25.6519 121.646 25.1972 121.008 24.8746 120.246C24.5519 119.483 24.3906 118.596 24.3906 117.584C24.3906 117.012 24.4859 116.447 24.6766 115.89C24.8672 115.318 25.1752 114.775 25.6006 114.262C26.0406 113.748 26.6052 113.264 27.2946 112.81C27.9839 112.355 28.8272 111.959 29.8246 111.622C30.8366 111.284 32.0099 111.013 33.3446 110.808C34.6792 110.588 36.2046 110.456 37.9206 110.412V109.092C37.9206 107.581 37.5979 106.466 36.9526 105.748C36.3072 105.014 35.3759 104.648 34.1586 104.648C33.2786 104.648 32.5452 104.75 31.9586 104.956C31.3866 105.161 30.8806 105.396 30.4406 105.66C30.0006 105.909 29.5972 106.136 29.2306 106.342C28.8786 106.547 28.4826 106.65 28.0426 106.65C27.6612 106.65 27.3386 106.554 27.0746 106.364C26.8106 106.158 26.5979 105.924 26.4366 105.66L25.4686 103.922Z" fill="white"/>
<path d="M61.6723 105.176C61.5257 105.41 61.3717 105.579 61.2103 105.682C61.049 105.77 60.8437 105.814 60.5943 105.814C60.3303 105.814 60.0443 105.74 59.7363 105.594C59.443 105.447 59.0983 105.286 58.7023 105.11C58.3063 104.919 57.8517 104.75 57.3383 104.604C56.8397 104.457 56.2457 104.384 55.5563 104.384C54.4857 104.384 53.6423 104.611 53.0263 105.066C52.425 105.52 52.1243 106.114 52.1243 106.848C52.1243 107.332 52.2783 107.742 52.5863 108.08C52.909 108.402 53.327 108.688 53.8403 108.938C54.3683 109.187 54.9623 109.414 55.6223 109.62C56.2823 109.81 56.9497 110.023 57.6243 110.258C58.3137 110.492 58.9883 110.764 59.6483 111.072C60.3083 111.365 60.895 111.746 61.4083 112.216C61.9363 112.67 62.3543 113.22 62.6623 113.866C62.985 114.511 63.1463 115.288 63.1463 116.198C63.1463 117.283 62.9483 118.288 62.5523 119.212C62.171 120.121 61.599 120.913 60.8363 121.588C60.0737 122.248 59.1277 122.768 57.9983 123.15C56.8837 123.516 55.593 123.7 54.1263 123.7C53.349 123.7 52.5863 123.626 51.8383 123.48C51.105 123.348 50.3937 123.157 49.7043 122.908C49.0297 122.658 48.399 122.365 47.8123 122.028C47.2403 121.69 46.7343 121.324 46.2943 120.928L47.5483 118.86C47.7097 118.61 47.9003 118.42 48.1203 118.288C48.3403 118.156 48.619 118.09 48.9563 118.09C49.2937 118.09 49.609 118.185 49.9023 118.376C50.2103 118.566 50.5623 118.772 50.9583 118.992C51.3543 119.212 51.8163 119.417 52.3443 119.608C52.887 119.798 53.569 119.894 54.3903 119.894C55.0357 119.894 55.5857 119.82 56.0403 119.674C56.5097 119.512 56.891 119.307 57.1843 119.058C57.4923 118.808 57.7123 118.522 57.8443 118.2C57.991 117.862 58.0643 117.518 58.0643 117.166C58.0643 116.638 57.903 116.205 57.5803 115.868C57.2723 115.53 56.8543 115.237 56.3263 114.988C55.813 114.738 55.219 114.518 54.5443 114.328C53.8843 114.122 53.2023 113.902 52.4983 113.668C51.809 113.433 51.127 113.162 50.4523 112.854C49.7923 112.531 49.1983 112.128 48.6703 111.644C48.157 111.16 47.739 110.566 47.4163 109.862C47.1083 109.158 46.9543 108.307 46.9543 107.31C46.9543 106.386 47.1377 105.506 47.5043 104.67C47.871 103.834 48.4063 103.108 49.1103 102.491C49.829 101.861 50.7163 101.362 51.7723 100.996C52.843 100.614 54.075 100.423 55.4683 100.423C57.023 100.423 58.4383 100.68 59.7143 101.193C60.9903 101.707 62.0537 102.382 62.9043 103.218L61.6723 105.176Z" fill="white"/>
<path d="M78.7203 113.712C77.1509 113.785 75.8309 113.924 74.7603 114.13C73.6896 114.32 72.8316 114.57 72.1863 114.878C71.5409 115.186 71.0789 115.545 70.8003 115.956C70.5216 116.366 70.3823 116.814 70.3823 117.298C70.3823 118.251 70.6609 118.933 71.2183 119.344C71.7903 119.754 72.5309 119.96 73.4403 119.96C74.5549 119.96 75.5156 119.762 76.3223 119.366C77.1436 118.955 77.9429 118.339 78.7203 117.518V113.712ZM66.2683 103.922C68.8643 101.545 71.9883 100.357 75.6403 100.357C76.9603 100.357 78.1409 100.577 79.1823 101.017C80.2236 101.443 81.1036 102.044 81.8223 102.822C82.5409 103.584 83.0836 104.501 83.4503 105.572C83.8316 106.642 84.0223 107.816 84.0223 109.092V123.348H81.5583C81.0449 123.348 80.6489 123.274 80.3703 123.128C80.0916 122.966 79.8716 122.651 79.7103 122.182L79.2263 120.554C78.6543 121.067 78.0969 121.522 77.5543 121.918C77.0116 122.299 76.4469 122.622 75.8603 122.886C75.2736 123.15 74.6429 123.348 73.9683 123.48C73.3083 123.626 72.5749 123.7 71.7683 123.7C70.8149 123.7 69.9349 123.575 69.1283 123.326C68.3216 123.062 67.6249 122.673 67.0383 122.16C66.4516 121.646 65.9969 121.008 65.6743 120.246C65.3516 119.483 65.1903 118.596 65.1903 117.584C65.1903 117.012 65.2856 116.447 65.4763 115.89C65.6669 115.318 65.9749 114.775 66.4003 114.262C66.8403 113.748 67.4049 113.264 68.0943 112.81C68.7836 112.355 69.6269 111.959 70.6243 111.622C71.6363 111.284 72.8096 111.013 74.1443 110.808C75.4789 110.588 77.0043 110.456 78.7203 110.412V109.092C78.7203 107.581 78.3976 106.466 77.7523 105.748C77.1069 105.014 76.1756 104.648 74.9583 104.648C74.0783 104.648 73.3449 104.75 72.7583 104.956C72.1863 105.161 71.6803 105.396 71.2403 105.66C70.8003 105.909 70.3969 106.136 70.0303 106.342C69.6783 106.547 69.2823 106.65 68.8423 106.65C68.4609 106.65 68.1383 106.554 67.8743 106.364C67.6103 106.158 67.3976 105.924 67.2363 105.66L66.2683 103.922Z" fill="white"/>
<path d="M93.782 103.548C94.2367 103.093 94.7134 102.675 95.212 102.294C95.7254 101.898 96.2607 101.567 96.818 101.303C97.39 101.025 97.9987 100.812 98.644 100.666C99.2894 100.504 99.9934 100.423 100.756 100.423C101.988 100.423 103.081 100.636 104.034 101.062C104.987 101.472 105.779 102.059 106.41 102.822C107.055 103.57 107.539 104.472 107.862 105.528C108.199 106.569 108.368 107.72 108.368 108.982V123.348H102.934V108.982C102.934 107.603 102.619 106.54 101.988 105.792C101.357 105.029 100.397 104.648 99.106 104.648C98.1674 104.648 97.2874 104.86 96.466 105.286C95.6447 105.711 94.8674 106.29 94.134 107.024V123.348H88.7V100.776H92.022C92.726 100.776 93.188 101.106 93.408 101.765L93.782 103.548Z" fill="white"/>
<path d="M123.084 100.423C124.756 100.423 126.274 100.695 127.638 101.238C129.017 101.78 130.19 102.55 131.158 103.548C132.141 104.545 132.896 105.762 133.424 107.2C133.952 108.637 134.216 110.243 134.216 112.018C134.216 113.807 133.952 115.42 133.424 116.858C132.896 118.295 132.141 119.52 131.158 120.532C130.19 121.544 129.017 122.321 127.638 122.864C126.274 123.406 124.756 123.678 123.084 123.678C121.397 123.678 119.865 123.406 118.486 122.864C117.107 122.321 115.927 121.544 114.944 120.532C113.976 119.52 113.221 118.295 112.678 116.858C112.15 115.42 111.886 113.807 111.886 112.018C111.886 110.243 112.15 108.637 112.678 107.2C113.221 105.762 113.976 104.545 114.944 103.548C115.927 102.55 117.107 101.78 118.486 101.238C119.865 100.695 121.397 100.423 123.084 100.423ZM123.084 119.498C124.961 119.498 126.347 118.867 127.242 117.606C128.151 116.344 128.606 114.496 128.606 112.062C128.606 109.627 128.151 107.772 127.242 106.496C126.347 105.22 124.961 104.582 123.084 104.582C121.177 104.582 119.762 105.227 118.838 106.518C117.929 107.794 117.474 109.642 117.474 112.062C117.474 114.482 117.929 116.33 118.838 117.606C119.762 118.867 121.177 119.498 123.084 119.498Z" fill="white"/>
<path d="M157.584 100.776L148.63 123.348H143.702L134.748 100.776H139.236C139.647 100.776 139.984 100.871 140.248 101.062C140.527 101.252 140.71 101.494 140.798 101.788L145.154 113.844C145.389 114.548 145.594 115.237 145.77 115.912C145.946 116.586 146.1 117.261 146.232 117.936C146.379 117.261 146.54 116.586 146.716 115.912C146.892 115.237 147.105 114.548 147.354 113.844L151.798 101.788C151.901 101.494 152.084 101.252 152.348 101.062C152.612 100.871 152.927 100.776 153.294 100.776H157.584Z" fill="white"/>
<path d="M171.406 113.712C169.836 113.785 168.516 113.924 167.446 114.13C166.375 114.32 165.517 114.57 164.872 114.878C164.226 115.186 163.764 115.545 163.486 115.956C163.207 116.366 163.068 116.814 163.068 117.298C163.068 118.251 163.346 118.933 163.904 119.344C164.476 119.754 165.216 119.96 166.126 119.96C167.24 119.96 168.201 119.762 169.008 119.366C169.829 118.955 170.628 118.339 171.406 117.518V113.712ZM158.954 103.922C161.55 101.545 164.674 100.357 168.326 100.357C169.646 100.357 170.826 100.577 171.868 101.017C172.909 101.443 173.789 102.044 174.508 102.822C175.226 103.584 175.769 104.501 176.136 105.572C176.517 106.642 176.708 107.816 176.708 109.092V123.348H174.244C173.73 123.348 173.334 123.274 173.056 123.128C172.777 122.966 172.557 122.651 172.396 122.182L171.912 120.554C171.34 121.067 170.782 121.522 170.24 121.918C169.697 122.299 169.132 122.622 168.546 122.886C167.959 123.15 167.328 123.348 166.654 123.48C165.994 123.626 165.26 123.7 164.454 123.7C163.5 123.7 162.62 123.575 161.814 123.326C161.007 123.062 160.31 122.673 159.724 122.16C159.137 121.646 158.682 121.008 158.36 120.246C158.037 119.483 157.876 118.596 157.876 117.584C157.876 117.012 157.971 116.447 158.162 115.89C158.352 115.318 158.66 114.775 159.086 114.262C159.526 113.748 160.09 113.264 160.78 112.81C161.469 112.355 162.312 111.959 163.31 111.622C164.322 111.284 165.495 111.013 166.83 110.808C168.164 110.588 169.69 110.456 171.406 110.412V109.092C171.406 107.581 171.083 106.466 170.438 105.748C169.792 105.014 168.861 104.648 167.644 104.648C166.764 104.648 166.03 104.75 165.444 104.956C164.872 105.161 164.366 105.396 163.926 105.66C163.486 105.909 163.082 106.136 162.716 106.342C162.364 106.547 161.968 106.65 161.528 106.65C161.146 106.65 160.824 106.554 160.56 106.364C160.296 106.158 160.083 105.924 159.922 105.66L158.954 103.922Z" fill="white"/>
<path d="M203.762 114.867L199.01 103.069C198.845 102.684 198.685 102.222 198.531 101.683C198.465 101.947 198.394 102.2 198.317 102.442C198.24 102.673 198.157 102.888 198.069 103.086L193.317 114.867H203.762ZM208.926 123.348H207.623C207.469 123.348 207.342 123.309 207.243 123.232C207.144 123.144 207.067 123.034 207.012 122.902L204.273 116.121H192.806L190.067 122.902C190.023 123.023 189.946 123.128 189.836 123.216C189.726 123.304 189.594 123.348 189.44 123.348H188.153L197.706 100H199.373L208.926 123.348Z" fill="white"/>
<path d="M215.816 123.348H214.116V100H215.816V123.348Z" fill="white"/>
<path d="M37.4052 145.374L34.8132 138.939C34.7232 138.729 34.6362 138.477 34.5522 138.183C34.5162 138.327 34.4772 138.465 34.4352 138.597C34.3932 138.723 34.3482 138.84 34.3002 138.948L31.7082 145.374H37.4052ZM40.2222 150H39.5112C39.4272 150 39.3582 149.979 39.3042 149.937C39.2502 149.889 39.2082 149.829 39.1782 149.757L37.6842 146.058H31.4292L29.9352 149.757C29.9112 149.823 29.8692 149.88 29.8092 149.928C29.7492 149.976 29.6772 150 29.5932 150H28.8912L34.1022 137.265H35.0112L40.2222 150ZM43.2601 150H42.3331V137.265H43.2601V150ZM53.9562 150.144C53.3502 150.144 52.8762 149.976 52.5342 149.64C52.1982 149.304 52.0302 148.785 52.0302 148.083V141.963H50.7432C50.6772 141.963 50.6232 141.945 50.5812 141.909C50.5392 141.873 50.5182 141.822 50.5182 141.756V141.423L52.0482 141.315L52.2642 138.111C52.2762 138.057 52.3002 138.009 52.3362 137.967C52.3722 137.925 52.4232 137.904 52.4892 137.904H52.8942V141.324H55.7202V141.963H52.8942V148.038C52.8942 148.284 52.9242 148.497 52.9842 148.677C53.0502 148.851 53.1372 148.995 53.2452 149.109C53.3592 149.223 53.4912 149.307 53.6412 149.361C53.7912 149.415 53.9532 149.442 54.1272 149.442C54.3432 149.442 54.5292 149.412 54.6852 149.352C54.8412 149.286 54.9762 149.217 55.0902 149.145C55.2042 149.067 55.2972 148.998 55.3692 148.938C55.4412 148.872 55.4982 148.839 55.5402 148.839C55.5882 148.839 55.6362 148.869 55.6842 148.929L55.9182 149.307C55.6902 149.559 55.3992 149.763 55.0452 149.919C54.6972 150.069 54.3342 150.144 53.9562 150.144ZM58.5421 142.557C58.9561 142.053 59.4271 141.651 59.9551 141.351C60.4891 141.051 61.0861 140.901 61.7461 140.901C62.2381 140.901 62.6701 140.979 63.0421 141.135C63.4201 141.291 63.7321 141.516 63.9781 141.81C64.2241 142.104 64.4101 142.458 64.5361 142.872C64.6621 143.286 64.7251 143.754 64.7251 144.276V150H63.8611V144.276C63.8611 143.436 63.6691 142.779 63.2851 142.305C62.9011 141.825 62.3161 141.585 61.5301 141.585C60.9481 141.585 60.4021 141.735 59.8921 142.035C59.3881 142.329 58.9381 142.74 58.5421 143.268V150H57.6781V136.905H58.5421V142.557ZM72.5876 145.671C71.7356 145.701 71.0006 145.77 70.3826 145.878C69.7706 145.98 69.2636 146.121 68.8616 146.301C68.4656 146.481 68.1716 146.697 67.9796 146.949C67.7876 147.195 67.6916 147.477 67.6916 147.795C67.6916 148.095 67.7396 148.356 67.8356 148.578C67.9376 148.794 68.0696 148.974 68.2316 149.118C68.3996 149.256 68.5916 149.358 68.8076 149.424C69.0236 149.49 69.2486 149.523 69.4826 149.523C69.8306 149.523 70.1486 149.487 70.4366 149.415C70.7306 149.337 71.0006 149.232 71.2466 149.1C71.4986 148.962 71.7326 148.8 71.9486 148.614C72.1646 148.428 72.3776 148.227 72.5876 148.011V145.671ZM67.3226 142.314C67.7906 141.846 68.2826 141.492 68.7986 141.252C69.3146 141.012 69.8996 140.892 70.5536 140.892C71.0336 140.892 71.4536 140.97 71.8136 141.126C72.1736 141.276 72.4706 141.495 72.7046 141.783C72.9446 142.065 73.1246 142.41 73.2446 142.818C73.3646 143.22 73.4246 143.67 73.4246 144.168V150H73.0826C72.9026 150 72.7916 149.916 72.7496 149.748L72.6236 148.596C72.3776 148.836 72.1316 149.052 71.8856 149.244C71.6456 149.436 71.3936 149.598 71.1296 149.73C70.8656 149.862 70.5806 149.964 70.2746 150.036C69.9686 150.108 69.6326 150.144 69.2666 150.144C68.9606 150.144 68.6636 150.099 68.3756 150.009C68.0876 149.919 67.8296 149.781 67.6016 149.595C67.3796 149.409 67.1996 149.172 67.0616 148.884C66.9296 148.59 66.8636 148.239 66.8636 147.831C66.8636 147.453 66.9716 147.102 67.1876 146.778C67.4036 146.454 67.7426 146.172 68.2046 145.932C68.6666 145.692 69.2576 145.5 69.9776 145.356C70.7036 145.212 71.5736 145.128 72.5876 145.104V144.168C72.5876 143.34 72.4076 142.704 72.0476 142.26C71.6936 141.81 71.1656 141.585 70.4636 141.585C70.0316 141.585 69.6626 141.645 69.3566 141.765C69.0566 141.885 68.8016 142.017 68.5916 142.161C68.3816 142.305 68.2106 142.437 68.0786 142.557C67.9466 142.677 67.8356 142.737 67.7456 142.737C67.6796 142.737 67.6256 142.722 67.5836 142.692C67.5416 142.662 67.5056 142.623 67.4756 142.575L67.3226 142.314ZM78.6359 150.144C78.0299 150.144 77.5559 149.976 77.2139 149.64C76.8779 149.304 76.7099 148.785 76.7099 148.083V141.963H75.4229C75.3569 141.963 75.3029 141.945 75.2609 141.909C75.2189 141.873 75.1979 141.822 75.1979 141.756V141.423L76.7279 141.315L76.9439 138.111C76.9559 138.057 76.9799 138.009 77.0159 137.967C77.0519 137.925 77.1029 137.904 77.1689 137.904H77.5739V141.324H80.3999V141.963H77.5739V148.038C77.5739 148.284 77.6039 148.497 77.6639 148.677C77.7299 148.851 77.8169 148.995 77.9249 149.109C78.0389 149.223 78.1709 149.307 78.3209 149.361C78.4709 149.415 78.6329 149.442 78.8069 149.442C79.0229 149.442 79.2089 149.412 79.3649 149.352C79.5209 149.286 79.6559 149.217 79.7699 149.145C79.8839 149.067 79.9769 148.998 80.0489 148.938C80.1209 148.872 80.1779 148.839 80.2199 148.839C80.2679 148.839 80.3159 148.869 80.3639 148.929L80.5979 149.307C80.3699 149.559 80.0789 149.763 79.7249 149.919C79.3769 150.069 79.0139 150.144 78.6359 150.144ZM88.1086 142.557C88.5226 142.053 88.9936 141.651 89.5216 141.351C90.0556 141.051 90.6526 140.901 91.3126 140.901C91.8046 140.901 92.2366 140.979 92.6086 141.135C92.9866 141.291 93.2986 141.516 93.5446 141.81C93.7906 142.104 93.9766 142.458 94.1026 142.872C94.2286 143.286 94.2916 143.754 94.2916 144.276V150H93.4276V144.276C93.4276 143.436 93.2356 142.779 92.8516 142.305C92.4676 141.825 91.8826 141.585 91.0966 141.585C90.5146 141.585 89.9686 141.735 89.4586 142.035C88.9546 142.329 88.5046 142.74 88.1086 143.268V150H87.2446V136.905H88.1086V142.557ZM103.423 144.618C103.423 144.138 103.354 143.709 103.216 143.331C103.084 142.947 102.895 142.623 102.649 142.359C102.403 142.095 102.109 141.894 101.767 141.756C101.431 141.612 101.059 141.54 100.651 141.54C100.189 141.54 99.775 141.612 99.409 141.756C99.043 141.9 98.725 142.107 98.455 142.377C98.191 142.647 97.978 142.971 97.816 143.349C97.654 143.727 97.546 144.15 97.492 144.618H103.423ZM97.447 145.167V145.338C97.447 146.01 97.525 146.601 97.681 147.111C97.837 147.621 98.059 148.05 98.347 148.398C98.635 148.74 98.983 148.998 99.391 149.172C99.799 149.346 100.255 149.433 100.759 149.433C101.209 149.433 101.599 149.385 101.929 149.289C102.259 149.187 102.535 149.076 102.757 148.956C102.985 148.83 103.165 148.719 103.297 148.623C103.429 148.521 103.525 148.47 103.585 148.47C103.663 148.47 103.723 148.5 103.765 148.56L103.999 148.848C103.855 149.028 103.663 149.196 103.423 149.352C103.189 149.508 102.925 149.643 102.631 149.757C102.343 149.865 102.031 149.952 101.695 150.018C101.365 150.084 101.032 150.117 100.696 150.117C100.084 150.117 99.526 150.012 99.022 149.802C98.518 149.586 98.086 149.274 97.726 148.866C97.366 148.458 97.087 147.96 96.889 147.372C96.697 146.778 96.601 146.1 96.601 145.338C96.601 144.696 96.691 144.105 96.871 143.565C97.057 143.019 97.321 142.551 97.663 142.161C98.011 141.765 98.434 141.456 98.932 141.234C99.436 141.012 100.006 140.901 100.642 140.901C101.146 140.901 101.614 140.988 102.046 141.162C102.478 141.336 102.853 141.591 103.171 141.927C103.489 142.257 103.738 142.665 103.918 143.151C104.104 143.637 104.197 144.195 104.197 144.825C104.197 144.957 104.179 145.047 104.143 145.095C104.107 145.143 104.047 145.167 103.963 145.167H97.447ZM107.473 136.905V150H106.609V136.905H107.473ZM111.364 148.047C111.538 148.305 111.718 148.524 111.904 148.704C112.096 148.878 112.297 149.022 112.507 149.136C112.717 149.244 112.939 149.322 113.173 149.37C113.413 149.418 113.665 149.442 113.929 149.442C114.457 149.442 114.919 149.346 115.315 149.154C115.711 148.962 116.041 148.692 116.305 148.344C116.575 147.99 116.776 147.57 116.908 147.084C117.046 146.592 117.115 146.052 117.115 145.464C117.115 144.132 116.869 143.154 116.377 142.53C115.885 141.9 115.18 141.585 114.262 141.585C113.668 141.585 113.131 141.738 112.651 142.044C112.171 142.35 111.742 142.776 111.364 143.322V148.047ZM111.328 142.656C111.724 142.116 112.186 141.687 112.714 141.369C113.248 141.051 113.845 140.892 114.505 140.892C115.603 140.892 116.458 141.273 117.07 142.035C117.688 142.797 117.997 143.94 117.997 145.464C117.997 146.118 117.91 146.73 117.736 147.3C117.568 147.864 117.316 148.356 116.98 148.776C116.65 149.19 116.242 149.517 115.756 149.757C115.276 149.997 114.721 150.117 114.091 150.117C113.485 150.117 112.96 150.006 112.516 149.784C112.072 149.562 111.688 149.235 111.364 148.803V153.168H110.5V141.045H110.977C111.127 141.045 111.214 141.12 111.238 141.27L111.328 142.656ZM125.355 142.152C125.307 142.236 125.238 142.278 125.148 142.278C125.082 142.278 124.998 142.242 124.896 142.17C124.794 142.092 124.656 142.008 124.482 141.918C124.314 141.822 124.104 141.738 123.852 141.666C123.6 141.588 123.294 141.549 122.934 141.549C122.61 141.549 122.313 141.597 122.043 141.693C121.779 141.783 121.551 141.906 121.359 142.062C121.173 142.218 121.029 142.401 120.927 142.611C120.825 142.815 120.774 143.031 120.774 143.259C120.774 143.541 120.846 143.775 120.99 143.961C121.134 144.147 121.32 144.306 121.548 144.438C121.782 144.57 122.049 144.684 122.349 144.78C122.649 144.876 122.952 144.972 123.258 145.068C123.57 145.164 123.876 145.272 124.176 145.392C124.476 145.506 124.74 145.65 124.968 145.824C125.202 145.998 125.391 146.211 125.535 146.463C125.679 146.715 125.751 147.021 125.751 147.381C125.751 147.771 125.682 148.134 125.544 148.47C125.406 148.806 125.202 149.097 124.932 149.343C124.668 149.589 124.341 149.784 123.951 149.928C123.561 150.072 123.114 150.144 122.61 150.144C121.98 150.144 121.437 150.045 120.981 149.847C120.525 149.643 120.117 149.379 119.757 149.055L119.955 148.749C119.985 148.701 120.018 148.665 120.054 148.641C120.096 148.617 120.15 148.605 120.216 148.605C120.294 148.605 120.387 148.653 120.495 148.749C120.609 148.845 120.759 148.95 120.945 149.064C121.131 149.172 121.359 149.274 121.629 149.37C121.905 149.466 122.244 149.514 122.646 149.514C123.024 149.514 123.357 149.463 123.645 149.361C123.933 149.253 124.173 149.109 124.365 148.929C124.557 148.749 124.701 148.539 124.797 148.299C124.899 148.053 124.95 147.795 124.95 147.525C124.95 147.225 124.878 146.976 124.734 146.778C124.59 146.58 124.401 146.412 124.167 146.274C123.933 146.136 123.666 146.019 123.366 145.923C123.072 145.827 122.769 145.731 122.457 145.635C122.145 145.539 121.839 145.434 121.539 145.32C121.245 145.206 120.981 145.062 120.747 144.888C120.513 144.714 120.324 144.504 120.18 144.258C120.036 144.006 119.964 143.694 119.964 143.322C119.964 143.004 120.033 142.698 120.171 142.404C120.309 142.11 120.504 141.852 120.756 141.63C121.014 141.408 121.326 141.231 121.692 141.099C122.058 140.967 122.469 140.901 122.925 140.901C123.471 140.901 123.954 140.979 124.374 141.135C124.8 141.291 125.187 141.531 125.535 141.855L125.355 142.152ZM139.744 141.045L134.596 152.88C134.56 152.964 134.512 153.033 134.452 153.087C134.398 153.141 134.317 153.168 134.209 153.168H133.597L135.172 149.667L131.383 141.045H132.094C132.184 141.045 132.256 141.069 132.31 141.117C132.364 141.159 132.4 141.207 132.418 141.261L135.433 148.227C135.469 148.317 135.499 148.41 135.523 148.506C135.553 148.596 135.58 148.689 135.604 148.785C135.634 148.689 135.664 148.596 135.694 148.506C135.73 148.41 135.766 148.317 135.802 148.227L138.781 141.261C138.811 141.195 138.853 141.144 138.907 141.108C138.961 141.066 139.021 141.045 139.087 141.045H139.744ZM144.878 140.901C145.52 140.901 146.093 141.012 146.597 141.234C147.107 141.45 147.536 141.759 147.884 142.161C148.232 142.563 148.496 143.049 148.676 143.619C148.862 144.183 148.955 144.816 148.955 145.518C148.955 146.22 148.862 146.853 148.676 147.417C148.496 147.981 148.232 148.464 147.884 148.866C147.536 149.268 147.107 149.577 146.597 149.793C146.093 150.009 145.52 150.117 144.878 150.117C144.236 150.117 143.66 150.009 143.15 149.793C142.646 149.577 142.217 149.268 141.863 148.866C141.515 148.464 141.248 147.981 141.062 147.417C140.882 146.853 140.792 146.22 140.792 145.518C140.792 144.816 140.882 144.183 141.062 143.619C141.248 143.049 141.515 142.563 141.863 142.161C142.217 141.759 142.646 141.45 143.15 141.234C143.66 141.012 144.236 140.901 144.878 140.901ZM144.878 149.442C145.412 149.442 145.877 149.352 146.273 149.172C146.675 148.986 147.008 148.722 147.272 148.38C147.542 148.038 147.743 147.627 147.875 147.147C148.007 146.661 148.073 146.118 148.073 145.518C148.073 144.924 148.007 144.384 147.875 143.898C147.743 143.412 147.542 142.998 147.272 142.656C147.008 142.308 146.675 142.041 146.273 141.855C145.877 141.669 145.412 141.576 144.878 141.576C144.344 141.576 143.876 141.669 143.474 141.855C143.078 142.041 142.745 142.308 142.475 142.656C142.211 142.998 142.01 143.412 141.872 143.898C141.74 144.384 141.674 144.924 141.674 145.518C141.674 146.118 141.74 146.661 141.872 147.147C142.01 147.627 142.211 148.038 142.475 148.38C142.745 148.722 143.078 148.986 143.474 149.172C143.876 149.352 144.344 149.442 144.878 149.442ZM158.318 141.045V150H157.841C157.691 150 157.604 149.922 157.58 149.766L157.499 148.434C157.085 148.95 156.605 149.364 156.059 149.676C155.519 149.988 154.916 150.144 154.25 150.144C153.752 150.144 153.317 150.066 152.945 149.91C152.573 149.754 152.264 149.529 152.018 149.235C151.772 148.941 151.586 148.587 151.46 148.173C151.334 147.759 151.271 147.291 151.271 146.769V141.045H152.135V146.769C152.135 147.609 152.327 148.269 152.711 148.749C153.095 149.223 153.68 149.46 154.466 149.46C155.048 149.46 155.591 149.313 156.095 149.019C156.605 148.719 157.058 148.305 157.454 147.777V141.045H158.318ZM166.702 150V141.981L165.442 141.9C165.274 141.882 165.19 141.807 165.19 141.675V141.324H166.702V140.739C166.702 140.211 166.78 139.722 166.936 139.272C167.092 138.816 167.32 138.423 167.62 138.093C167.926 137.763 168.301 137.505 168.745 137.319C169.189 137.133 169.702 137.04 170.284 137.04C170.692 137.04 171.091 137.058 171.481 137.094C171.877 137.13 172.249 137.154 172.597 137.166H173.236V150H172.381V137.769C172.063 137.757 171.724 137.739 171.364 137.715C171.01 137.691 170.686 137.679 170.392 137.679C169.942 137.679 169.54 137.751 169.186 137.895C168.832 138.033 168.532 138.237 168.286 138.507C168.046 138.771 167.86 139.092 167.728 139.47C167.602 139.848 167.539 140.271 167.539 140.739V141.324H170.14V141.963H167.566V150H166.702ZM177.232 141.045V150H176.377V141.045H177.232ZM177.601 137.958C177.601 138.066 177.577 138.168 177.529 138.264C177.487 138.354 177.43 138.435 177.358 138.507C177.286 138.579 177.202 138.636 177.106 138.678C177.01 138.72 176.908 138.741 176.8 138.741C176.692 138.741 176.59 138.72 176.494 138.678C176.398 138.636 176.314 138.579 176.242 138.507C176.17 138.435 176.113 138.354 176.071 138.264C176.029 138.168 176.008 138.066 176.008 137.958C176.008 137.85 176.029 137.748 176.071 137.652C176.113 137.55 176.17 137.463 176.242 137.391C176.314 137.319 176.398 137.262 176.494 137.22C176.59 137.178 176.692 137.157 176.8 137.157C176.908 137.157 177.01 137.178 177.106 137.22C177.202 137.262 177.286 137.319 177.358 137.391C177.43 137.463 177.487 137.55 177.529 137.652C177.577 137.748 177.601 137.85 177.601 137.958ZM181.105 143.205C181.243 142.839 181.399 142.515 181.573 142.233C181.753 141.945 181.957 141.702 182.185 141.504C182.419 141.306 182.677 141.156 182.959 141.054C183.247 140.946 183.565 140.892 183.913 140.892C184.099 140.892 184.282 140.91 184.462 140.946C184.642 140.976 184.801 141.033 184.939 141.117L184.867 141.711C184.837 141.807 184.78 141.855 184.696 141.855C184.624 141.855 184.513 141.834 184.363 141.792C184.219 141.75 184.027 141.729 183.787 141.729C183.439 141.729 183.13 141.783 182.86 141.891C182.596 141.993 182.356 142.149 182.14 142.359C181.93 142.569 181.744 142.83 181.582 143.142C181.426 143.448 181.282 143.802 181.15 144.204V150H180.286V141.045H180.745C180.847 141.045 180.919 141.066 180.961 141.108C181.003 141.15 181.03 141.222 181.042 141.324L181.105 143.205ZM189.097 150.144C188.491 150.144 188.017 149.976 187.675 149.64C187.339 149.304 187.171 148.785 187.171 148.083V141.963H185.884C185.818 141.963 185.764 141.945 185.722 141.909C185.68 141.873 185.659 141.822 185.659 141.756V141.423L187.189 141.315L187.405 138.111C187.417 138.057 187.441 138.009 187.477 137.967C187.513 137.925 187.564 137.904 187.63 137.904H188.035V141.324H190.861V141.963H188.035V148.038C188.035 148.284 188.065 148.497 188.125 148.677C188.191 148.851 188.278 148.995 188.386 149.109C188.5 149.223 188.632 149.307 188.782 149.361C188.932 149.415 189.094 149.442 189.268 149.442C189.484 149.442 189.67 149.412 189.826 149.352C189.982 149.286 190.117 149.217 190.231 149.145C190.345 149.067 190.438 148.998 190.51 148.938C190.582 148.872 190.639 148.839 190.681 148.839C190.729 148.839 190.777 148.869 190.825 148.929L191.059 149.307C190.831 149.559 190.54 149.763 190.186 149.919C189.838 150.069 189.475 150.144 189.097 150.144Z" fill="white"/>
</svg>
