<svg width="232" height="48" viewBox="0 0 232 48" fill="none" xmlns="http://www.w3.org/2000/svg">
<path d="M37.71 9.83594C40.4265 9.83594 42.6289 12.0383 42.6289 14.7549V26.7783C42.6289 29.4949 40.4265 31.6973 37.71 31.6973H27.5039C29.019 33.1334 30.4666 35.1781 30.5957 37.4697C30.7836 40.8022 28.2378 43.0626 25.3262 42.8457C20.2337 42.4649 17.0618 37.4663 11.417 36.166C7.9739 35.373 4.35334 38.0803 2.95703 43.4971C3.50468 43.9586 5.03809 43.0088 5.03809 43.0088C4.98319 44.4474 3.20221 44.6125 2.73828 46.2119C2.59618 46.7963 2.23174 47.304 1.72168 47.6289C1.21162 47.9538 0.595025 48.071 0 47.9561C0.711769 47.2708 0.726972 45.6861 0.629883 45.0986C0.192686 42.4518 0.602409 41.2973 1.28613 40.6455C1.25886 42.3151 1.93227 42.8632 1.94336 42.8721C4.40743 36.2471 8.02215 34.9165 10.917 34.999C16.297 35.1528 20.7818 40.3297 24.4961 40.835C27.1819 41.2006 28.523 40.0103 28.5254 37.7266C28.5298 34.445 22.9541 31.6973 22.9541 31.6973H10.3838C7.66723 31.6973 5.46484 29.4949 5.46484 26.7783V14.7549C5.46484 12.0383 7.66723 9.83594 10.3838 9.83594H37.71ZM10.9297 27.3252H30.6055V25.1387H10.9297V27.3252ZM10.9297 21.8594H37.1631V19.6738H10.9297V21.8594ZM10.9307 16.3945H34.9775V14.208H10.9307V16.3945ZM3.06055 0C3.71214 3.20145 6.49438 6.01069 9.77441 7.67773C6.86418 7.92568 4.45397 9.92744 3.60645 12.6221C1.51053 8.27144 2.10089 3.77225 3.06055 0ZM45.0342 0C45.9938 3.77225 46.5842 8.27145 44.4883 12.6221C43.6408 9.92744 41.2306 7.92569 38.3203 7.67773C41.6003 6.01069 44.3826 3.20145 45.0342 0Z" fill="white"/>
<path d="M75.7224 16.0946C75.5929 16.2594 75.4634 16.3889 75.3339 16.483C75.2162 16.5772 75.0396 16.6243 74.8042 16.6243C74.5806 16.6243 74.3628 16.5595 74.1509 16.4301C73.939 16.2888 73.6859 16.1358 73.3917 15.971C73.0974 15.7944 72.7442 15.6414 72.3322 15.5119C71.932 15.3706 71.4317 15.3 70.8314 15.3C70.0663 15.3 69.3953 15.4413 68.8185 15.7238C68.2417 15.9945 67.7591 16.3889 67.3707 16.9068C66.994 17.4247 66.7115 18.0545 66.5231 18.7961C66.3348 19.5259 66.2406 20.3558 66.2406 21.2857C66.2406 22.2509 66.3407 23.1102 66.5408 23.8636C66.7527 24.617 67.0528 25.2526 67.4413 25.7705C67.8297 26.2767 68.3006 26.6651 68.8538 26.9359C69.4071 27.1949 70.031 27.3243 70.7255 27.3243C71.42 27.3243 71.9791 27.2419 72.4029 27.0771C72.8384 26.9006 73.2033 26.7122 73.4976 26.5121C73.7919 26.3002 74.045 26.1119 74.2568 25.9471C74.4805 25.7705 74.7277 25.6822 74.9984 25.6822C75.3516 25.6822 75.6164 25.8176 75.793 26.0884L77.0466 27.6775C76.564 28.2425 76.0402 28.7192 75.4752 29.1077C74.9102 29.4844 74.3216 29.7904 73.7095 30.0258C73.1092 30.2495 72.4853 30.4084 71.8379 30.5026C71.2022 30.5967 70.5666 30.6438 69.9309 30.6438C68.8126 30.6438 67.7591 30.4378 66.7703 30.0258C65.7815 29.6021 64.9164 28.99 64.1748 28.1895C63.4332 27.3891 62.8446 26.4121 62.4091 25.2585C61.9853 24.0931 61.7734 22.7689 61.7734 21.2857C61.7734 19.9555 61.9618 18.7254 62.3385 17.5954C62.7269 16.4536 63.2919 15.4707 64.0335 14.6467C64.7751 13.8109 65.6933 13.1576 66.788 12.6868C67.8827 12.2159 69.1422 11.9805 70.5666 11.9805C71.9203 11.9805 73.1033 12.1983 74.1156 12.6338C75.1397 13.0694 76.0579 13.6932 76.8701 14.5055L75.7224 16.0946Z" fill="white"/>
<path d="M88.9976 22.6453C87.7381 22.7041 86.6786 22.816 85.8193 22.9807C84.96 23.1338 84.2714 23.3339 83.7535 23.5811C83.2356 23.8283 82.8648 24.1167 82.6411 24.4463C82.4175 24.7759 82.3056 25.1349 82.3056 25.5233C82.3056 26.2885 82.5293 26.8358 82.9766 27.1654C83.4357 27.495 84.0301 27.6598 84.7599 27.6598C85.6545 27.6598 86.4256 27.5009 87.073 27.1831C87.7322 26.8535 88.3737 26.3591 88.9976 25.6999V22.6453ZM79.0038 14.788C81.0873 12.881 83.5946 11.9276 86.5256 11.9276C87.585 11.9276 88.5326 12.1041 89.3684 12.4573C90.2041 12.7986 90.9104 13.2812 91.4872 13.9051C92.064 14.5172 92.4995 15.2529 92.7938 16.1122C93.0999 16.9715 93.2529 17.9132 93.2529 18.9373V30.379H91.2753C90.8633 30.379 90.5455 30.3201 90.3218 30.2024C90.0982 30.0729 89.9216 29.8198 89.7921 29.4432L89.4037 28.1366C88.9446 28.5485 88.4973 28.9135 88.0618 29.2313C87.6262 29.5373 87.173 29.7963 86.7022 30.0082C86.2313 30.2201 85.7252 30.379 85.1837 30.4849C84.654 30.6026 84.0654 30.6615 83.418 30.6615C82.6529 30.6615 81.9466 30.5614 81.2992 30.3613C80.6518 30.1494 80.0926 29.8375 79.6218 29.4255C79.1509 29.0135 78.786 28.5015 78.5271 27.8894C78.2681 27.2773 78.1386 26.5651 78.1386 25.7529C78.1386 25.2938 78.2151 24.8406 78.3681 24.3933C78.5212 23.9342 78.7684 23.4987 79.1097 23.0867C79.4629 22.6747 79.9161 22.2862 80.4693 21.9213C81.0226 21.5564 81.6994 21.2386 82.4999 20.9679C83.3121 20.6971 84.2538 20.4794 85.325 20.3146C86.3961 20.138 87.6203 20.0321 88.9976 19.9967V18.9373C88.9976 17.7249 88.7386 16.8303 88.2207 16.2535C87.7027 15.6649 86.9553 15.3706 85.9783 15.3706C85.272 15.3706 84.6834 15.453 84.2126 15.6178C83.7535 15.7826 83.3474 15.971 82.9942 16.1829C82.6411 16.383 82.3174 16.5654 82.0231 16.7302C81.7406 16.895 81.4228 16.9774 81.0696 16.9774C80.7636 16.9774 80.5046 16.9009 80.2927 16.7479C80.0809 16.5831 79.9102 16.3947 79.7807 16.1829L79.0038 14.788Z" fill="white"/>
<path d="M108.06 15.7944C107.943 15.9827 107.819 16.1181 107.69 16.2005C107.56 16.2711 107.395 16.3065 107.195 16.3065C106.983 16.3065 106.754 16.2476 106.507 16.1299C106.271 16.0122 105.995 15.8827 105.677 15.7414C105.359 15.5884 104.994 15.453 104.582 15.3353C104.182 15.2176 103.705 15.1588 103.152 15.1588C102.292 15.1588 101.616 15.3412 101.121 15.7061C100.639 16.071 100.397 16.5478 100.397 17.1363C100.397 17.5248 100.521 17.8544 100.768 18.1251C101.027 18.3841 101.363 18.6136 101.775 18.8137C102.198 19.0138 102.675 19.1963 103.205 19.3611C103.734 19.5141 104.27 19.6848 104.812 19.8731C105.365 20.0615 105.906 20.2792 106.436 20.5264C106.966 20.7619 107.437 21.0679 107.849 21.4446C108.272 21.8095 108.608 22.2509 108.855 22.7689C109.114 23.2868 109.243 23.9107 109.243 24.6405C109.243 25.5116 109.084 26.3179 108.767 27.0595C108.461 27.7893 108.002 28.4249 107.389 28.9664C106.777 29.4961 106.018 29.914 105.112 30.2201C104.217 30.5143 103.181 30.6615 102.004 30.6615C101.38 30.6615 100.768 30.6026 100.168 30.4849C99.5792 30.379 99.0083 30.2259 98.455 30.0258C97.9136 29.8257 97.4074 29.5903 96.9366 29.3196C96.4775 29.0488 96.0714 28.7545 95.7182 28.4367L96.7247 26.777C96.8542 26.5769 97.0072 26.4238 97.1838 26.3179C97.3603 26.212 97.584 26.159 97.8547 26.159C98.1255 26.159 98.3785 26.2355 98.614 26.3885C98.8612 26.5415 99.1437 26.7063 99.4615 26.8829C99.7793 27.0595 100.15 27.2243 100.574 27.3773C101.009 27.5303 101.557 27.6068 102.216 27.6068C102.734 27.6068 103.175 27.548 103.54 27.4303C103.917 27.3008 104.223 27.136 104.458 26.9359C104.706 26.7358 104.882 26.5062 104.988 26.2473C105.106 25.9765 105.165 25.6999 105.165 25.4174C105.165 24.9936 105.035 24.6464 104.776 24.3756C104.529 24.1049 104.194 23.8695 103.77 23.6694C103.358 23.4693 102.881 23.2927 102.34 23.1397C101.81 22.9749 101.262 22.7983 100.697 22.61C100.144 22.4216 99.5969 22.2038 99.0554 21.9566C98.5257 21.6977 98.0489 21.374 97.6252 20.9855C97.2132 20.5971 96.8777 20.1203 96.6187 19.5553C96.3715 18.9903 96.2479 18.3076 96.2479 17.5071C96.2479 16.7655 96.3951 16.0593 96.6894 15.3883C96.9836 14.7173 97.4133 14.1347 97.9783 13.6403C98.5551 13.1341 99.2673 12.7339 100.115 12.4396C100.974 12.1335 101.963 11.9805 103.081 11.9805C104.329 11.9805 105.465 12.1865 106.489 12.5985C107.513 13.0105 108.366 13.552 109.049 14.2229L108.06 15.7944Z" fill="white"/>
<path d="M121.743 22.6453C120.483 22.7041 119.424 22.816 118.565 22.9807C117.705 23.1338 117.017 23.3339 116.499 23.5811C115.981 23.8283 115.61 24.1167 115.386 24.4463C115.163 24.7759 115.051 25.1349 115.051 25.5233C115.051 26.2885 115.275 26.8358 115.722 27.1654C116.181 27.495 116.775 27.6598 117.505 27.6598C118.4 27.6598 119.171 27.5009 119.818 27.1831C120.477 26.8535 121.119 26.3591 121.743 25.6999V22.6453ZM111.749 14.788C113.833 12.881 116.34 11.9276 119.271 11.9276C120.33 11.9276 121.278 12.1041 122.114 12.4573C122.949 12.7986 123.656 13.2812 124.232 13.9051C124.809 14.5172 125.245 15.2529 125.539 16.1122C125.845 16.9715 125.998 17.9132 125.998 18.9373V30.379H124.021C123.609 30.379 123.291 30.3201 123.067 30.2024C122.843 30.0729 122.667 29.8198 122.537 29.4432L122.149 28.1366C121.69 28.5485 121.243 28.9135 120.807 29.2313C120.371 29.5373 119.918 29.7963 119.447 30.0082C118.977 30.2201 118.47 30.379 117.929 30.4849C117.399 30.6026 116.811 30.6615 116.163 30.6615C115.398 30.6615 114.692 30.5614 114.044 30.3613C113.397 30.1494 112.838 29.8375 112.367 29.4255C111.896 29.0135 111.531 28.5015 111.272 27.8894C111.013 27.2773 110.884 26.5651 110.884 25.7529C110.884 25.2938 110.96 24.8406 111.113 24.3933C111.266 23.9342 111.514 23.4987 111.855 23.0867C112.208 22.6747 112.661 22.2862 113.215 21.9213C113.768 21.5564 114.445 21.2386 115.245 20.9679C116.057 20.6971 116.999 20.4794 118.07 20.3146C119.141 20.138 120.366 20.0321 121.743 19.9967V18.9373C121.743 17.7249 121.484 16.8303 120.966 16.2535C120.448 15.6649 119.7 15.3706 118.723 15.3706C118.017 15.3706 117.429 15.453 116.958 15.6178C116.499 15.7826 116.093 15.971 115.739 16.1829C115.386 16.383 115.063 16.5654 114.768 16.7302C114.486 16.895 114.168 16.9774 113.815 16.9774C113.509 16.9774 113.25 16.9009 113.038 16.7479C112.826 16.5831 112.655 16.3947 112.526 16.1829L111.749 14.788Z" fill="white"/>
<path d="M133.831 14.4878C134.196 14.1229 134.579 13.7874 134.979 13.4814C135.391 13.1635 135.82 12.8987 136.268 12.6868C136.727 12.4631 137.215 12.2925 137.733 12.1747C138.251 12.0453 138.816 11.9805 139.428 11.9805C140.417 11.9805 141.294 12.1512 142.059 12.4926C142.824 12.8222 143.46 13.293 143.966 13.9051C144.484 14.5055 144.873 15.2294 145.132 16.0769C145.402 16.9127 145.538 17.8367 145.538 18.849V30.379H141.176V18.849C141.176 17.7425 140.923 16.8891 140.417 16.2888C139.911 15.6767 139.14 15.3706 138.104 15.3706C137.351 15.3706 136.644 15.5413 135.985 15.8827C135.326 16.2241 134.702 16.689 134.114 17.2776V30.379H129.752V12.263H132.419C132.984 12.263 133.354 12.5279 133.531 13.0576L133.831 14.4878Z" fill="white"/>
<path d="M157.348 11.9805C158.69 11.9805 159.909 12.1983 161.003 12.6338C162.11 13.0694 163.052 13.6874 163.829 14.4878C164.617 15.2882 165.223 16.2653 165.647 17.4188C166.071 18.5724 166.283 19.8614 166.283 21.2857C166.283 22.7218 166.071 24.0166 165.647 25.1702C165.223 26.3238 164.617 27.3067 163.829 28.1189C163.052 28.9311 162.11 29.555 161.003 29.9905C159.909 30.4261 158.69 30.6438 157.348 30.6438C155.995 30.6438 154.765 30.4261 153.658 29.9905C152.552 29.555 151.604 28.9311 150.815 28.1189C150.038 27.3067 149.432 26.3238 148.997 25.1702C148.573 24.0166 148.361 22.7218 148.361 21.2857C148.361 19.8614 148.573 18.5724 148.997 17.4188C149.432 16.2653 150.038 15.2882 150.815 14.4878C151.604 13.6874 152.552 13.0694 153.658 12.6338C154.765 12.1983 155.995 11.9805 157.348 11.9805ZM157.348 27.289C158.855 27.289 159.968 26.7829 160.686 25.7705C161.415 24.7582 161.78 23.275 161.78 21.321C161.78 19.367 161.415 17.8779 160.686 16.8538C159.968 15.8297 158.855 15.3177 157.348 15.3177C155.818 15.3177 154.682 15.8356 153.941 16.8715C153.211 17.8956 152.846 19.3787 152.846 21.321C152.846 23.2633 153.211 24.7464 153.941 25.7705C154.682 26.7829 155.818 27.289 157.348 27.289Z" fill="white"/>
<path d="M185.038 12.263L177.851 30.379H173.896L166.71 12.263H170.312C170.642 12.263 170.912 12.3395 171.124 12.4926C171.348 12.6456 171.495 12.8398 171.566 13.0752L175.062 22.7512C175.25 23.3162 175.415 23.8695 175.556 24.411C175.697 24.9524 175.821 25.4939 175.927 26.0354C176.045 25.4939 176.174 24.9524 176.315 24.411C176.457 23.8695 176.627 23.3162 176.827 22.7512L180.394 13.0752C180.476 12.8398 180.624 12.6456 180.835 12.4926C181.047 12.3395 181.3 12.263 181.595 12.263H185.038Z" fill="white"/>
<path d="M196.131 22.6453C194.871 22.7041 193.812 22.816 192.952 22.9807C192.093 23.1338 191.405 23.3339 190.887 23.5811C190.369 23.8283 189.998 24.1167 189.774 24.4463C189.551 24.7759 189.439 25.1349 189.439 25.5233C189.439 26.2885 189.662 26.8358 190.11 27.1654C190.569 27.495 191.163 27.6598 191.893 27.6598C192.788 27.6598 193.559 27.5009 194.206 27.1831C194.865 26.8535 195.507 26.3591 196.131 25.6999V22.6453ZM186.137 14.788C188.22 12.881 190.728 11.9276 193.659 11.9276C194.718 11.9276 195.666 12.1041 196.501 12.4573C197.337 12.7986 198.044 13.2812 198.62 13.9051C199.197 14.5172 199.633 15.2529 199.927 16.1122C200.233 16.9715 200.386 17.9132 200.386 18.9373V30.379H198.408C197.996 30.379 197.679 30.3201 197.455 30.2024C197.231 30.0729 197.055 29.8198 196.925 29.4432L196.537 28.1366C196.078 28.5485 195.63 28.9135 195.195 29.2313C194.759 29.5373 194.306 29.7963 193.835 30.0082C193.364 30.2201 192.858 30.379 192.317 30.4849C191.787 30.6026 191.199 30.6615 190.551 30.6615C189.786 30.6615 189.08 30.5614 188.432 30.3613C187.785 30.1494 187.226 29.8375 186.755 29.4255C186.284 29.0135 185.919 28.5015 185.66 27.8894C185.401 27.2773 185.272 26.5651 185.272 25.7529C185.272 25.2938 185.348 24.8406 185.501 24.3933C185.654 23.9342 185.901 23.4987 186.243 23.0867C186.596 22.6747 187.049 22.2862 187.602 21.9213C188.156 21.5564 188.833 21.2386 189.633 20.9679C190.445 20.6971 191.387 20.4794 192.458 20.3146C193.529 20.138 194.753 20.0321 196.131 19.9967V18.9373C196.131 17.7249 195.872 16.8303 195.354 16.2535C194.836 15.6649 194.088 15.3706 193.111 15.3706C192.405 15.3706 191.817 15.453 191.346 15.6178C190.887 15.7826 190.48 15.971 190.127 16.1829C189.774 16.383 189.45 16.5654 189.156 16.7302C188.874 16.895 188.556 16.9774 188.203 16.9774C187.897 16.9774 187.638 16.9009 187.426 16.7479C187.214 16.5831 187.043 16.3947 186.914 16.1829L186.137 14.788Z" fill="white"/>
<path d="M222.099 23.5723L218.285 14.1038C218.153 13.7948 218.025 13.424 217.901 12.9914C217.848 13.2033 217.791 13.4063 217.729 13.6005C217.667 13.7859 217.601 13.9581 217.53 14.117L213.716 23.5723H222.099ZM226.244 30.379H225.198C225.074 30.379 224.973 30.3481 224.893 30.2863C224.814 30.2156 224.752 30.1274 224.708 30.0214L222.51 24.5787H213.306L211.108 30.0214C211.072 30.1185 211.011 30.2024 210.922 30.273C210.834 30.3437 210.728 30.379 210.604 30.379H209.571L217.239 11.6406H218.576L226.244 30.379Z" fill="white"/>
<path d="M231.773 30.379H230.409V11.6406H231.773V30.379Z" fill="white"/>
<path d="M102.129 41.1279L100.511 37.111C100.455 36.9799 100.401 36.8226 100.348 36.6391C100.326 36.729 100.302 36.8151 100.275 36.8975C100.249 36.9762 100.221 37.0492 100.191 37.1166L98.573 41.1279H102.129ZM103.888 44.0156H103.444C103.391 44.0156 103.348 44.0025 103.315 43.9763C103.281 43.9463 103.255 43.9089 103.236 43.8639L102.303 41.5549H98.3989L97.4663 43.8639C97.4513 43.9051 97.4251 43.9407 97.3876 43.9707C97.3501 44.0006 97.3052 44.0156 97.2528 44.0156H96.8146L100.067 36.066H100.635L103.888 44.0156ZM105.784 44.0156H105.205V36.066H105.784V44.0156ZM112.461 44.1055C112.083 44.1055 111.787 44.0006 111.573 43.7909C111.364 43.5812 111.259 43.2572 111.259 42.819V38.9987H110.455C110.414 38.9987 110.38 38.9874 110.354 38.965C110.328 38.9425 110.315 38.9106 110.315 38.8694V38.6616L111.27 38.5942L111.405 36.5941C111.412 36.5604 111.427 36.5304 111.45 36.5042C111.472 36.478 111.504 36.4649 111.545 36.4649H111.798V38.5998H113.562V38.9987H111.798V42.7909C111.798 42.9444 111.817 43.0774 111.854 43.1898C111.895 43.2984 111.95 43.3883 112.017 43.4594C112.088 43.5306 112.171 43.583 112.264 43.6167C112.358 43.6504 112.459 43.6673 112.568 43.6673C112.703 43.6673 112.819 43.6486 112.916 43.6111C113.013 43.5699 113.098 43.5269 113.169 43.4819C113.24 43.4332 113.298 43.3901 113.343 43.3527C113.388 43.3115 113.424 43.2909 113.45 43.2909C113.48 43.2909 113.51 43.3096 113.54 43.3471L113.686 43.583C113.543 43.7403 113.362 43.8677 113.141 43.9651C112.924 44.0587 112.697 44.1055 112.461 44.1055ZM115.324 39.3695C115.582 39.0548 115.876 38.8039 116.206 38.6166C116.539 38.4294 116.912 38.3357 117.324 38.3357C117.631 38.3357 117.9 38.3844 118.133 38.4818C118.369 38.5792 118.563 38.7196 118.717 38.9032C118.871 39.0867 118.987 39.3077 119.065 39.5661C119.144 39.8245 119.183 40.1167 119.183 40.4425V44.0156H118.644V40.4425C118.644 39.9182 118.524 39.508 118.284 39.2122C118.045 38.9125 117.679 38.7627 117.189 38.7627C116.826 38.7627 116.485 38.8563 116.166 39.0436C115.852 39.2271 115.571 39.4837 115.324 39.8133V44.0156H114.784V35.8413H115.324V39.3695ZM124.091 41.3133C123.559 41.332 123.101 41.3751 122.715 41.4425C122.333 41.5062 122.016 41.5942 121.765 41.7066C121.518 41.8189 121.335 41.9538 121.215 42.1111C121.095 42.2647 121.035 42.4407 121.035 42.6392C121.035 42.8265 121.065 42.9894 121.125 43.128C121.189 43.2628 121.271 43.3752 121.372 43.4651C121.477 43.5512 121.597 43.6149 121.732 43.6561C121.867 43.6973 122.007 43.7179 122.153 43.7179C122.37 43.7179 122.569 43.6954 122.749 43.6504C122.932 43.6018 123.101 43.5362 123.254 43.4538C123.411 43.3677 123.558 43.2665 123.692 43.1504C123.827 43.0343 123.96 42.9089 124.091 42.774V41.3133ZM120.805 39.2178C121.097 38.9256 121.404 38.7047 121.726 38.5548C122.048 38.405 122.413 38.3301 122.822 38.3301C123.121 38.3301 123.383 38.3788 123.608 38.4762C123.833 38.5698 124.018 38.7065 124.164 38.8863C124.314 39.0623 124.426 39.2777 124.501 39.5324C124.576 39.7833 124.614 40.0642 124.614 40.3751V44.0156H124.4C124.288 44.0156 124.219 43.9632 124.192 43.8583L124.114 43.1392C123.96 43.289 123.807 43.4239 123.653 43.5437C123.503 43.6636 123.346 43.7647 123.181 43.8471C123.016 43.9295 122.838 43.9932 122.647 44.0381C122.456 44.083 122.247 44.1055 122.018 44.1055C121.827 44.1055 121.642 44.0774 121.462 44.0212C121.282 43.9651 121.121 43.8789 120.979 43.7628C120.84 43.6467 120.728 43.4988 120.642 43.319C120.559 43.1355 120.518 42.9164 120.518 42.6617C120.518 42.4257 120.586 42.2066 120.72 42.0043C120.855 41.8021 121.067 41.6261 121.355 41.4762C121.644 41.3264 122.013 41.2066 122.462 41.1167C122.915 41.0268 123.458 40.9744 124.091 40.9594V40.3751C124.091 39.8582 123.979 39.4612 123.754 39.1841C123.533 38.9032 123.204 38.7627 122.765 38.7627C122.496 38.7627 122.265 38.8002 122.074 38.8751C121.887 38.95 121.728 39.0324 121.597 39.1223C121.466 39.2122 121.359 39.2946 121.277 39.3695C121.194 39.4444 121.125 39.4818 121.069 39.4818C121.028 39.4818 120.994 39.4725 120.968 39.4537C120.941 39.435 120.919 39.4107 120.9 39.3807L120.805 39.2178ZM127.867 44.1055C127.489 44.1055 127.193 44.0006 126.979 43.7909C126.769 43.5812 126.665 43.2572 126.665 42.819V38.9987H125.861C125.82 38.9987 125.786 38.9874 125.76 38.965C125.734 38.9425 125.721 38.9106 125.721 38.8694V38.6616L126.676 38.5942L126.811 36.5941C126.818 36.5604 126.833 36.5304 126.856 36.5042C126.878 36.478 126.91 36.4649 126.951 36.4649H127.204V38.5998H128.968V38.9987H127.204V42.7909C127.204 42.9444 127.223 43.0774 127.26 43.1898C127.301 43.2984 127.356 43.3883 127.423 43.4594C127.494 43.5306 127.577 43.583 127.67 43.6167C127.764 43.6504 127.865 43.6673 127.974 43.6673C128.108 43.6673 128.225 43.6486 128.322 43.6111C128.419 43.5699 128.504 43.5269 128.575 43.4819C128.646 43.4332 128.704 43.3901 128.749 43.3527C128.794 43.3115 128.829 43.2909 128.856 43.2909C128.886 43.2909 128.916 43.3096 128.945 43.3471L129.092 43.583C128.949 43.7403 128.768 43.8677 128.547 43.9651C128.329 44.0587 128.103 44.1055 127.867 44.1055ZM133.78 39.3695C134.038 39.0548 134.332 38.8039 134.662 38.6166C134.995 38.4294 135.368 38.3357 135.78 38.3357C136.087 38.3357 136.357 38.3844 136.589 38.4818C136.825 38.5792 137.02 38.7196 137.173 38.9032C137.327 39.0867 137.443 39.3077 137.522 39.5661C137.6 39.8245 137.64 40.1167 137.64 40.4425V44.0156H137.1V40.4425C137.1 39.9182 136.98 39.508 136.741 39.2122C136.501 38.9125 136.136 38.7627 135.645 38.7627C135.282 38.7627 134.941 38.8563 134.623 39.0436C134.308 39.2271 134.027 39.4837 133.78 39.8133V44.0156H133.241V35.8413H133.78V39.3695ZM143.34 40.656C143.34 40.3564 143.297 40.0886 143.211 39.8526C143.128 39.6129 143.01 39.4107 142.857 39.2459C142.703 39.0811 142.52 38.9556 142.306 38.8694C142.096 38.7796 141.864 38.7346 141.609 38.7346C141.321 38.7346 141.063 38.7796 140.834 38.8694C140.606 38.9593 140.407 39.0886 140.239 39.2571C140.074 39.4256 139.941 39.6279 139.84 39.8639C139.739 40.0998 139.671 40.3639 139.637 40.656H143.34ZM139.609 40.9987V41.1055C139.609 41.5249 139.658 41.8939 139.755 42.2122C139.853 42.5306 139.991 42.7984 140.171 43.0156C140.351 43.2291 140.568 43.3901 140.823 43.4988C141.078 43.6074 141.362 43.6617 141.677 43.6617C141.958 43.6617 142.201 43.6317 142.407 43.5718C142.613 43.5081 142.785 43.4388 142.924 43.3639C143.066 43.2853 143.179 43.216 143.261 43.1561C143.344 43.0924 143.403 43.0605 143.441 43.0605C143.49 43.0605 143.527 43.0793 143.553 43.1167L143.699 43.2965C143.609 43.4089 143.49 43.5137 143.34 43.6111C143.194 43.7085 143.029 43.7928 142.845 43.8639C142.666 43.9314 142.471 43.9857 142.261 44.0269C142.055 44.0681 141.847 44.0887 141.637 44.0887C141.255 44.0887 140.907 44.0231 140.593 43.892C140.278 43.7572 140.008 43.5624 139.784 43.3077C139.559 43.0531 139.385 42.7422 139.261 42.3751C139.141 42.0043 139.081 41.5811 139.081 41.1055C139.081 40.7047 139.137 40.3358 139.25 39.9987C139.366 39.6579 139.531 39.3657 139.744 39.1223C139.961 38.8751 140.225 38.6822 140.536 38.5436C140.851 38.405 141.207 38.3357 141.604 38.3357C141.918 38.3357 142.211 38.39 142.48 38.4987C142.75 38.6073 142.984 38.7665 143.182 38.9762C143.381 39.1822 143.536 39.4369 143.649 39.7403C143.765 40.0436 143.823 40.392 143.823 40.7852C143.823 40.8676 143.812 40.9238 143.789 40.9538C143.767 40.9837 143.729 40.9987 143.677 40.9987H139.609ZM145.868 35.8413V44.0156H145.328V35.8413H145.868ZM148.297 42.7965C148.406 42.9576 148.518 43.0943 148.634 43.2066C148.754 43.3152 148.879 43.4051 149.011 43.4763C149.142 43.5437 149.28 43.5924 149.426 43.6224C149.576 43.6523 149.733 43.6673 149.898 43.6673C150.228 43.6673 150.516 43.6074 150.763 43.4875C151.011 43.3677 151.217 43.1991 151.381 42.9819C151.55 42.7609 151.675 42.4987 151.758 42.1954C151.844 41.8882 151.887 41.5512 151.887 41.1841C151.887 40.3526 151.733 39.7421 151.426 39.3526C151.119 38.9593 150.679 38.7627 150.106 38.7627C149.735 38.7627 149.4 38.8582 149.1 39.0492C148.801 39.2402 148.533 39.5062 148.297 39.847V42.7965ZM148.275 39.4313C148.522 39.0942 148.81 38.8264 149.14 38.6279C149.473 38.4294 149.846 38.3301 150.258 38.3301C150.943 38.3301 151.477 38.5679 151.859 39.0436C152.245 39.5193 152.438 40.2328 152.438 41.1841C152.438 41.5924 152.383 41.9744 152.275 42.3302C152.17 42.6823 152.012 42.9894 151.803 43.2516C151.597 43.51 151.342 43.7141 151.039 43.8639C150.739 44.0138 150.393 44.0887 149.999 44.0887C149.621 44.0887 149.293 44.0194 149.016 43.8808C148.739 43.7422 148.499 43.5381 148.297 43.2684V45.9932H147.758V38.4256H148.055C148.149 38.4256 148.203 38.4724 148.218 38.5661L148.275 39.4313ZM157.03 39.1166C157 39.1691 156.957 39.1953 156.901 39.1953C156.86 39.1953 156.808 39.1728 156.744 39.1279C156.68 39.0792 156.594 39.0268 156.485 38.9706C156.381 38.9106 156.25 38.8582 156.092 38.8133C155.935 38.7646 155.744 38.7402 155.519 38.7402C155.317 38.7402 155.132 38.7702 154.963 38.8301C154.798 38.8863 154.656 38.9631 154.536 39.0605C154.42 39.1578 154.33 39.2721 154.266 39.4032C154.203 39.5305 154.171 39.6653 154.171 39.8077C154.171 39.9837 154.216 40.1298 154.306 40.2459C154.396 40.362 154.512 40.4612 154.654 40.5436C154.8 40.626 154.967 40.6972 155.154 40.7571C155.341 40.8171 155.53 40.877 155.721 40.9369C155.916 40.9968 156.107 41.0643 156.294 41.1392C156.482 41.2103 156.647 41.3002 156.789 41.4088C156.935 41.5174 157.053 41.6504 157.143 41.8077C157.233 41.965 157.278 42.156 157.278 42.3808C157.278 42.6242 157.235 42.8508 157.148 43.0605C157.062 43.2703 156.935 43.4519 156.766 43.6055C156.602 43.7591 156.397 43.8808 156.154 43.9707C155.911 44.0606 155.632 44.1055 155.317 44.1055C154.924 44.1055 154.585 44.0437 154.3 43.9201C154.015 43.7928 153.761 43.628 153.536 43.4257L153.66 43.2347C153.678 43.2047 153.699 43.1823 153.721 43.1673C153.748 43.1523 153.781 43.1448 153.823 43.1448C153.871 43.1448 153.929 43.1748 153.997 43.2347C154.068 43.2946 154.161 43.3602 154.278 43.4313C154.394 43.4988 154.536 43.5624 154.705 43.6224C154.877 43.6823 155.088 43.7122 155.339 43.7122C155.575 43.7122 155.783 43.6804 155.963 43.6167C156.143 43.5493 156.293 43.4594 156.412 43.3471C156.532 43.2347 156.622 43.1036 156.682 42.9538C156.746 42.8002 156.778 42.6392 156.778 42.4706C156.778 42.2834 156.733 42.1279 156.643 42.0043C156.553 41.8807 156.435 41.7759 156.289 41.6897C156.143 41.6036 155.976 41.5306 155.789 41.4706C155.605 41.4107 155.416 41.3508 155.221 41.2908C155.027 41.2309 154.836 41.1654 154.648 41.0942C154.465 41.0231 154.3 40.9332 154.154 40.8245C154.008 40.7159 153.89 40.5848 153.8 40.4313C153.71 40.274 153.665 40.0792 153.665 39.847C153.665 39.6485 153.708 39.4575 153.794 39.274C153.881 39.0904 154.002 38.9294 154.16 38.7908C154.321 38.6522 154.515 38.5417 154.744 38.4593C154.972 38.3769 155.229 38.3357 155.514 38.3357C155.854 38.3357 156.156 38.3844 156.418 38.4818C156.684 38.5792 156.926 38.729 157.143 38.9312L157.03 39.1166ZM166.013 38.4256L162.799 45.8134C162.777 45.8659 162.747 45.9089 162.709 45.9426C162.675 45.9763 162.625 45.9932 162.558 45.9932H162.175L163.159 43.8078L160.793 38.4256H161.237C161.293 38.4256 161.338 38.4406 161.372 38.4706C161.406 38.4968 161.428 38.5267 161.44 38.5605L163.322 42.9089C163.344 42.965 163.363 43.0231 163.378 43.083C163.396 43.1392 163.413 43.1973 163.428 43.2572C163.447 43.1973 163.466 43.1392 163.484 43.083C163.507 43.0231 163.529 42.965 163.552 42.9089L165.411 38.5605C165.43 38.5193 165.456 38.4874 165.49 38.4649C165.524 38.4387 165.561 38.4256 165.603 38.4256H166.013ZM169.218 38.3357C169.618 38.3357 169.976 38.405 170.291 38.5436C170.609 38.6784 170.877 38.8713 171.094 39.1223C171.311 39.3732 171.476 39.6766 171.588 40.0324C171.705 40.3845 171.763 40.7796 171.763 41.2178C171.763 41.656 171.705 42.0512 171.588 42.4032C171.476 42.7553 171.311 43.0568 171.094 43.3077C170.877 43.5587 170.609 43.7516 170.291 43.8864C169.976 44.0212 169.618 44.0887 169.218 44.0887C168.817 44.0887 168.457 44.0212 168.139 43.8864C167.824 43.7516 167.557 43.5587 167.336 43.3077C167.118 43.0568 166.952 42.7553 166.836 42.4032C166.723 42.0512 166.667 41.656 166.667 41.2178C166.667 40.7796 166.723 40.3845 166.836 40.0324C166.952 39.6766 167.118 39.3732 167.336 39.1223C167.557 38.8713 167.824 38.6784 168.139 38.5436C168.457 38.405 168.817 38.3357 169.218 38.3357ZM169.218 43.6673C169.551 43.6673 169.841 43.6111 170.088 43.4988C170.339 43.3827 170.547 43.2179 170.712 43.0044C170.881 42.7909 171.006 42.5343 171.088 42.2347C171.171 41.9313 171.212 41.5924 171.212 41.2178C171.212 40.847 171.171 40.5099 171.088 40.2066C171.006 39.9032 170.881 39.6447 170.712 39.4313C170.547 39.214 170.339 39.0474 170.088 38.9312C169.841 38.8151 169.551 38.7571 169.218 38.7571C168.884 38.7571 168.592 38.8151 168.341 38.9312C168.094 39.0474 167.886 39.214 167.718 39.4313C167.553 39.6447 167.427 39.9032 167.341 40.2066C167.259 40.5099 167.218 40.847 167.218 41.2178C167.218 41.5924 167.259 41.9313 167.341 42.2347C167.427 42.5343 167.553 42.7909 167.718 43.0044C167.886 43.2179 168.094 43.3827 168.341 43.4988C168.592 43.6111 168.884 43.6673 169.218 43.6673ZM177.607 38.4256V44.0156H177.309C177.215 44.0156 177.161 43.9669 177.146 43.8696L177.095 43.0381C176.837 43.3602 176.537 43.6186 176.197 43.8134C175.859 44.0081 175.483 44.1055 175.067 44.1055C174.756 44.1055 174.485 44.0568 174.253 43.9594C174.02 43.8621 173.828 43.7216 173.674 43.5381C173.52 43.3546 173.404 43.1336 173.326 42.8752C173.247 42.6167 173.208 42.3246 173.208 41.9987V38.4256H173.747V41.9987C173.747 42.5231 173.867 42.9351 174.107 43.2347C174.346 43.5306 174.712 43.6785 175.202 43.6785C175.565 43.6785 175.904 43.5868 176.219 43.4033C176.537 43.216 176.82 42.9576 177.067 42.628V38.4256H177.607ZM182.84 44.0156V39.0099L182.054 38.9593C181.949 38.9481 181.897 38.9013 181.897 38.8189V38.5998H182.84V38.2346C182.84 37.905 182.889 37.5998 182.986 37.3189C183.084 37.0342 183.226 36.7889 183.413 36.5829C183.604 36.3769 183.839 36.2158 184.116 36.0997C184.393 35.9836 184.713 35.9256 185.076 35.9256C185.331 35.9256 185.58 35.9368 185.824 35.9593C186.071 35.9817 186.303 35.9967 186.52 36.0042H186.919V44.0156H186.385V36.3806C186.187 36.3731 185.975 36.3619 185.751 36.3469C185.53 36.3319 185.327 36.3245 185.144 36.3245C184.863 36.3245 184.612 36.3694 184.391 36.4593C184.17 36.5454 183.983 36.6728 183.829 36.8413C183.679 37.0061 183.563 37.2065 183.481 37.4425C183.402 37.6784 183.363 37.9425 183.363 38.2346V38.5998H184.987V38.9987H183.38V44.0156H182.84ZM189.414 38.4256V44.0156H188.88V38.4256H189.414ZM189.644 36.4986C189.644 36.566 189.629 36.6297 189.599 36.6896C189.573 36.7458 189.537 36.7964 189.492 36.8413C189.447 36.8863 189.395 36.9218 189.335 36.9481C189.275 36.9743 189.211 36.9874 189.144 36.9874C189.076 36.9874 189.013 36.9743 188.953 36.9481C188.893 36.9218 188.841 36.8863 188.796 36.8413C188.751 36.7964 188.715 36.7458 188.689 36.6896C188.663 36.6297 188.65 36.566 188.65 36.4986C188.65 36.4312 188.663 36.3675 188.689 36.3076C188.715 36.2439 188.751 36.1896 188.796 36.1447C188.841 36.0997 188.893 36.0641 188.953 36.0379C189.013 36.0117 189.076 35.9986 189.144 35.9986C189.211 35.9986 189.275 36.0117 189.335 36.0379C189.395 36.0641 189.447 36.0997 189.492 36.1447C189.537 36.1896 189.573 36.2439 189.599 36.3076C189.629 36.3675 189.644 36.4312 189.644 36.4986ZM191.831 39.774C191.917 39.5455 192.015 39.3432 192.123 39.1672C192.236 38.9874 192.363 38.8357 192.505 38.7121C192.651 38.5885 192.812 38.4949 192.988 38.4312C193.168 38.3638 193.367 38.3301 193.584 38.3301C193.7 38.3301 193.814 38.3413 193.927 38.3638C194.039 38.3825 194.138 38.4181 194.224 38.4706L194.179 38.8414C194.161 38.9013 194.125 38.9312 194.073 38.9312C194.028 38.9312 193.958 38.9181 193.865 38.8919C193.775 38.8657 193.655 38.8526 193.505 38.8526C193.288 38.8526 193.095 38.8863 192.927 38.9537C192.762 39.0174 192.612 39.1148 192.477 39.2459C192.346 39.377 192.23 39.5399 192.129 39.7346C192.031 39.9257 191.942 40.1466 191.859 40.3976V44.0156H191.32V38.4256H191.606C191.67 38.4256 191.715 38.4387 191.741 38.4649C191.767 38.4912 191.784 38.5361 191.792 38.5998L191.831 39.774ZM196.82 44.1055C196.442 44.1055 196.146 44.0006 195.933 43.7909C195.723 43.5812 195.618 43.2572 195.618 42.819V38.9987H194.815C194.773 38.9987 194.74 38.9874 194.713 38.965C194.687 38.9425 194.674 38.9106 194.674 38.8694V38.6616L195.629 38.5942L195.764 36.5941C195.771 36.5604 195.786 36.5304 195.809 36.5042C195.831 36.478 195.863 36.4649 195.904 36.4649H196.157V38.5998H197.921V38.9987H196.157V42.7909C196.157 42.9444 196.176 43.0774 196.213 43.1898C196.255 43.2984 196.309 43.3883 196.376 43.4594C196.447 43.5306 196.53 43.583 196.624 43.6167C196.717 43.6504 196.818 43.6673 196.927 43.6673C197.062 43.6673 197.178 43.6486 197.275 43.6111C197.373 43.5699 197.457 43.5269 197.528 43.4819C197.599 43.4332 197.657 43.3901 197.702 43.3527C197.747 43.3115 197.783 43.2909 197.809 43.2909C197.839 43.2909 197.869 43.3096 197.899 43.3471L198.045 43.583C197.903 43.7403 197.721 43.8677 197.5 43.9651C197.283 44.0587 197.056 44.1055 196.82 44.1055Z" fill="white"/>
</svg>
