<svg width="63" height="57" viewBox="0 0 63 57" fill="none" xmlns="http://www.w3.org/2000/svg">
<g filter="url(#filter0_d_11929_49921)">
<path d="M48 12C49.6569 12 51 13.3431 51 15V36C51 37.6569 49.6569 39 48 39H45V42C45 42.7956 44.6837 43.5585 44.1211 44.1211C43.5585 44.6837 42.7956 45 42 45H15C14.2044 45 13.4415 44.6837 12.8789 44.1211C12.3163 43.5585 12 42.7956 12 42V21C12 20.2043 12.3163 19.4415 12.8789 18.8789C13.4415 18.3163 14.2043 18 15 18H18V15C18 13.3431 19.3431 12 21 12H48ZM15 21V42H42V39H21C19.3431 39 18 37.6569 18 36V21H15ZM21 28.876V36H48V30.6328L43.998 26.626H43.9971L39.1807 31.4375C38.5947 32.0227 37.6451 32.0222 37.0596 31.4365L27.75 22.125L21 28.876ZM21 24.6338L25.6279 20.0049L25.8457 19.8066C26.0734 19.6196 26.3284 19.4668 26.6016 19.3535C26.9656 19.2026 27.3559 19.125 27.75 19.125C28.1441 19.125 28.5344 19.2026 28.8984 19.3535C29.2623 19.5044 29.5926 19.7263 29.8711 20.0049L38.1211 28.2549L41.877 24.5039C42.4395 23.9417 43.2027 23.626 43.998 23.626C44.7932 23.626 45.5557 23.9419 46.1182 24.5039L46.1191 24.5049L48 26.3877V15H21V24.6338ZM39.75 18C40.9926 18 42 19.0074 42 20.25C42 21.4926 40.9926 22.5 39.75 22.5C38.5074 22.5 37.5 21.4926 37.5 20.25C37.5 19.0074 38.5074 18 39.75 18Z" fill="white"/>
</g>
<defs>
<filter id="filter0_d_11929_49921" x="-4.5" y="-7.5" width="72" height="72" filterUnits="userSpaceOnUse" color-interpolation-filters="sRGB">
<feFlood flood-opacity="0" result="BackgroundImageFix"/>
<feColorMatrix in="SourceAlpha" type="matrix" values="0 0 0 0 0 0 0 0 0 0 0 0 0 0 0 0 0 0 127 0" result="hardAlpha"/>
<feOffset/>
<feGaussianBlur stdDeviation="6"/>
<feComposite in2="hardAlpha" operator="out"/>
<feColorMatrix type="matrix" values="0 0 0 0 0.258824 0 0 0 0 0.937255 0 0 0 0 0.737255 0 0 0 1 0"/>
<feBlend mode="normal" in2="BackgroundImageFix" result="effect1_dropShadow_11929_49921"/>
<feBlend mode="normal" in="SourceGraphic" in2="effect1_dropShadow_11929_49921" result="shape"/>
</filter>
</defs>
</svg>
