<svg width="63" height="64" viewBox="0 0 63 64" fill="none" xmlns="http://www.w3.org/2000/svg">
<g filter="url(#filter0_d_11929_49841)">
<path d="M43.5156 20.1992C45.7857 20.1995 47.6258 22.0344 47.626 24.2979V34.3184C47.6258 36.5818 45.7856 38.4167 43.5156 38.417H34.9902C36.2551 39.6136 37.4625 41.3159 37.5703 43.2236C37.7275 46.0009 35.5995 47.885 33.166 47.7041C28.91 47.3868 26.2596 43.2213 21.542 42.1377C18.6644 41.4767 15.6387 43.733 14.4717 48.2471C14.9254 48.6275 16.1869 47.854 16.21 47.8398C16.1642 49.0389 14.6756 49.1766 14.2881 50.5098C14.1693 50.9966 13.8656 51.4197 13.4395 51.6904C13.0132 51.9612 12.4973 52.0586 12 51.9629C12.5949 51.392 12.6075 50.0718 12.5264 49.582C12.1609 47.3762 12.5038 46.4143 13.0752 45.8711C13.0523 47.2738 13.624 47.7266 13.624 47.7266C15.6832 42.2058 18.7037 41.0964 21.123 41.165C25.6196 41.293 29.3683 45.6074 32.4727 46.0283C34.7172 46.333 35.8378 45.3415 35.8398 43.4385C35.8437 40.7587 31.3693 38.5064 31.1895 38.417H20.6768C18.4068 38.4167 16.5666 36.5818 16.5664 34.3184V24.2979C16.5666 22.0344 18.4067 20.1995 20.6768 20.1992H43.5156ZM21.6846 33.9531C21.3281 33.9533 21.0392 34.2422 21.0391 34.5986V35.2451C21.0393 35.6015 21.3282 35.8905 21.6846 35.8906H24.9141C25.2705 35.8905 25.5594 35.6015 25.5596 35.2451V34.5986C25.5594 34.2422 25.2705 33.9532 24.9141 33.9531H21.6846ZM27.4971 33.9531C27.1406 33.9533 26.8517 34.2422 26.8516 34.5986V35.2451C26.8518 35.6015 27.1407 35.8905 27.4971 35.8906H36.5391C36.8954 35.8904 37.1844 35.6014 37.1846 35.2451V34.5986C37.1844 34.2423 36.8954 33.9534 36.5391 33.9531H27.4971ZM39.1221 33.9531C38.7656 33.9533 38.4767 34.2422 38.4766 34.5986V35.2451C38.4768 35.6015 38.7657 35.8905 39.1221 35.8906H42.3516C42.708 35.8905 42.9969 35.6015 42.9971 35.2451V34.5986C42.9969 34.2422 42.708 33.9532 42.3516 33.9531H39.1221ZM21.6846 30.7266C21.3281 30.7267 21.0392 31.0156 21.0391 31.3721V32.0186C21.0393 32.3749 21.3282 32.6639 21.6846 32.6641H22.9766C23.3331 32.664 23.6219 32.375 23.6221 32.0186V31.3721C23.6219 31.0156 23.3331 30.7266 22.9766 30.7266H21.6846ZM24.915 30.7266C24.5586 30.7267 24.2697 31.0156 24.2695 31.3721V32.0186C24.2697 32.3749 24.5586 32.6639 24.915 32.6641H26.207C26.5635 32.664 26.8523 32.375 26.8525 32.0186V31.3721C26.8524 31.0156 26.5636 30.7266 26.207 30.7266H24.915ZM28.1455 30.7266C27.7891 30.7267 27.5002 31.0156 27.5 31.3721V32.0186C27.5002 32.3749 27.7891 32.6639 28.1455 32.6641H29.4375C29.794 32.664 30.0828 32.375 30.083 32.0186V31.3721C30.0828 31.0156 29.794 30.7266 29.4375 30.7266H28.1455ZM31.3721 30.7266C31.0156 30.7267 30.7267 31.0156 30.7266 31.3721V32.0186C30.7268 32.3749 31.0157 32.6639 31.3721 32.6641H32.6641C33.0206 32.664 33.3094 32.375 33.3096 32.0186V31.3721C33.3094 31.0156 33.0206 30.7266 32.6641 30.7266H31.3721ZM34.5986 30.7266C34.2422 30.7267 33.9533 31.0156 33.9531 31.3721V32.0186C33.9533 32.3749 34.2422 32.6639 34.5986 32.6641H35.8906C36.2471 32.664 36.5359 32.375 36.5361 32.0186V31.3721C36.536 31.0156 36.2472 30.7266 35.8906 30.7266H34.5986ZM37.833 30.7266C37.4766 30.7267 37.1877 31.0156 37.1875 31.3721V32.0186C37.1877 32.3749 37.4766 32.6639 37.833 32.6641H39.125C39.4815 32.664 39.7703 32.375 39.7705 32.0186V31.3721C39.7703 31.0156 39.4815 30.7266 39.125 30.7266H37.833ZM41.0596 30.7266C40.7031 30.7267 40.4142 31.0156 40.4141 31.3721V32.0186C40.4143 32.3749 40.7032 32.6639 41.0596 32.6641H42.3516C42.7081 32.664 42.9969 32.375 42.9971 32.0186V31.3721C42.9969 31.0156 42.7081 30.7266 42.3516 30.7266H41.0596ZM21.6846 28.1445C21.3281 28.1447 21.0392 28.4336 21.0391 28.79V29.4365C21.0393 29.7929 21.3282 30.0819 21.6846 30.082H22.9766C23.3331 30.082 23.6219 29.793 23.6221 29.4365V28.79C23.6219 28.4335 23.3331 28.1446 22.9766 28.1445H21.6846ZM24.915 28.1445C24.5586 28.1447 24.2697 28.4336 24.2695 28.79V29.4365C24.2697 29.7929 24.5586 30.0819 24.915 30.082H26.207C26.5635 30.082 26.8523 29.793 26.8525 29.4365V28.79C26.8524 28.4335 26.5636 28.1446 26.207 28.1445H24.915ZM28.1455 28.1445C27.7891 28.1447 27.5002 28.4336 27.5 28.79V29.4365C27.5002 29.7929 27.7891 30.0819 28.1455 30.082H29.4375C29.794 30.082 30.0828 29.793 30.083 29.4365V28.79C30.0828 28.4335 29.794 28.1446 29.4375 28.1445H28.1455ZM31.3721 28.1445C31.0156 28.1447 30.7267 28.4336 30.7266 28.79V29.4365C30.7268 29.7929 31.0157 30.0819 31.3721 30.082H32.6641C33.0206 30.082 33.3094 29.793 33.3096 29.4365V28.79C33.3094 28.4335 33.0206 28.1446 32.6641 28.1445H31.3721ZM34.5986 28.1445C34.2422 28.1447 33.9533 28.4336 33.9531 28.79V29.4365C33.9533 29.7929 34.2422 30.0819 34.5986 30.082H35.8906C36.2471 30.082 36.5359 29.793 36.5361 29.4365V28.79C36.536 28.4335 36.2472 28.1446 35.8906 28.1445H34.5986ZM37.833 28.1445C37.4766 28.1447 37.1877 28.4336 37.1875 28.79V29.4365C37.1877 29.7929 37.4766 30.0819 37.833 30.082H39.125C39.4815 30.082 39.7703 29.793 39.7705 29.4365V28.79C39.7703 28.4335 39.4815 28.1446 39.125 28.1445H37.833ZM41.0596 28.1445C40.7031 28.1447 40.4142 28.4336 40.4141 28.79V29.4365C40.4143 29.7929 40.7032 30.0819 41.0596 30.082H42.3516C42.7081 30.082 42.9969 29.793 42.9971 29.4365V28.79C42.9969 28.4335 42.7081 28.1446 42.3516 28.1445H41.0596ZM21.6846 25.5625C21.3281 25.5627 21.0392 25.8516 21.0391 26.208V26.8545C21.0393 27.2109 21.3282 27.4998 21.6846 27.5H22.9766C23.3331 27.4999 23.6219 27.2109 23.6221 26.8545V26.208C23.6219 25.8515 23.3331 25.5626 22.9766 25.5625H21.6846ZM24.915 25.5625C24.5586 25.5627 24.2697 25.8516 24.2695 26.208V26.8545C24.2697 27.2109 24.5586 27.4998 24.915 27.5H26.207C26.5635 27.4999 26.8523 27.2109 26.8525 26.8545V26.208C26.8524 25.8515 26.5636 25.5626 26.207 25.5625H24.915ZM28.1455 25.5625C27.7891 25.5627 27.5002 25.8516 27.5 26.208V26.8545C27.5002 27.2109 27.7891 27.4998 28.1455 27.5H29.4375C29.794 27.4999 30.0828 27.2109 30.083 26.8545V26.208C30.0828 25.8515 29.794 25.5626 29.4375 25.5625H28.1455ZM31.3721 25.5625C31.0156 25.5627 30.7267 25.8516 30.7266 26.208V26.8545C30.7268 27.2109 31.0157 27.4998 31.3721 27.5H32.6641C33.0206 27.4999 33.3094 27.2109 33.3096 26.8545V26.208C33.3094 25.8515 33.0206 25.5626 32.6641 25.5625H31.3721ZM34.5986 25.5625C34.2422 25.5627 33.9533 25.8516 33.9531 26.208V26.8545C33.9533 27.2109 34.2422 27.4998 34.5986 27.5H35.8906C36.2471 27.4999 36.5359 27.2109 36.5361 26.8545V26.208C36.536 25.8515 36.2472 25.5626 35.8906 25.5625H34.5986ZM37.833 25.5625C37.4766 25.5627 37.1877 25.8516 37.1875 26.208V26.8545C37.1877 27.2109 37.4766 27.4998 37.833 27.5H39.125C39.4815 27.4999 39.7703 27.2109 39.7705 26.8545V26.208C39.7703 25.8515 39.4815 25.5626 39.125 25.5625H37.833ZM41.0596 25.5625C40.7031 25.5627 40.4142 25.8516 40.4141 26.208V26.8545C40.4143 27.2109 40.7032 27.4998 41.0596 27.5H42.3516C42.7081 27.4999 42.9969 27.2109 42.9971 26.8545V26.208C42.9969 25.8515 42.7081 25.5626 42.3516 25.5625H41.0596ZM21.6846 22.9766C21.3281 22.9767 21.0392 23.2656 21.0391 23.6221V24.2686C21.0393 24.6249 21.3282 24.9139 21.6846 24.9141H22.9766C23.3331 24.914 23.6219 24.625 23.6221 24.2686V23.6221C23.6219 23.2656 23.3331 22.9766 22.9766 22.9766H21.6846ZM24.915 22.9766C24.5586 22.9767 24.2697 23.2656 24.2695 23.6221V24.2686C24.2697 24.6249 24.5586 24.9139 24.915 24.9141H26.207C26.5635 24.914 26.8523 24.625 26.8525 24.2686V23.6221C26.8524 23.2656 26.5636 22.9766 26.207 22.9766H24.915ZM28.1455 22.9766C27.7891 22.9767 27.5002 23.2656 27.5 23.6221V24.2686C27.5002 24.6249 27.7891 24.9139 28.1455 24.9141H29.4375C29.794 24.914 30.0828 24.625 30.083 24.2686V23.6221C30.0828 23.2656 29.794 22.9766 29.4375 22.9766H28.1455ZM31.3721 22.9766C31.0156 22.9767 30.7267 23.2656 30.7266 23.6221V24.2686C30.7268 24.6249 31.0157 24.9139 31.3721 24.9141H32.6641C33.0206 24.914 33.3094 24.625 33.3096 24.2686V23.6221C33.3094 23.2656 33.0206 22.9766 32.6641 22.9766H31.3721ZM34.5986 22.9766C34.2422 22.9767 33.9533 23.2656 33.9531 23.6221V24.2686C33.9533 24.6249 34.2422 24.9139 34.5986 24.9141H35.8906C36.2471 24.914 36.5359 24.625 36.5361 24.2686V23.6221C36.536 23.2656 36.2472 22.9766 35.8906 22.9766H34.5986ZM37.833 22.9766C37.4766 22.9767 37.1877 23.2656 37.1875 23.6221V24.2686C37.1877 24.6249 37.4766 24.9139 37.833 24.9141H39.125C39.4815 24.914 39.7703 24.625 39.7705 24.2686V23.6221C39.7703 23.2656 39.4815 22.9766 39.125 22.9766H37.833ZM41.0596 22.9766C40.7031 22.9767 40.4142 23.2656 40.4141 23.6221V24.2686C40.4143 24.6249 40.7032 24.9139 41.0596 24.9141H42.3516C42.7081 24.914 42.9969 24.625 42.9971 24.2686V23.6221C42.9969 23.2656 42.7081 22.9766 42.3516 22.9766H41.0596ZM14.5576 12C15.1022 14.6679 17.4277 17.0083 20.1689 18.3975C17.7367 18.6041 15.723 20.273 15.0146 22.5186C13.2629 18.893 13.7556 15.1436 14.5576 12ZM49.6387 12C50.4407 15.1436 50.9334 18.893 49.1816 22.5186C48.4733 20.273 46.4596 18.6041 44.0273 18.3975C46.7686 17.0082 49.0941 14.6678 49.6387 12Z" fill="white"/>
</g>
<defs>
<filter id="filter0_d_11929_49841" x="-4.60938" y="-4" width="72" height="72" filterUnits="userSpaceOnUse" color-interpolation-filters="sRGB">
<feFlood flood-opacity="0" result="BackgroundImageFix"/>
<feColorMatrix in="SourceAlpha" type="matrix" values="0 0 0 0 0 0 0 0 0 0 0 0 0 0 0 0 0 0 127 0" result="hardAlpha"/>
<feOffset/>
<feGaussianBlur stdDeviation="6"/>
<feComposite in2="hardAlpha" operator="out"/>
<feColorMatrix type="matrix" values="0 0 0 0 0.258824 0 0 0 0 0.937255 0 0 0 0 0.737255 0 0 0 1 0"/>
<feBlend mode="normal" in2="BackgroundImageFix" result="effect1_dropShadow_11929_49841"/>
<feBlend mode="normal" in="SourceGraphic" in2="effect1_dropShadow_11929_49841" result="shape"/>
</filter>
</defs>
</svg>
