<svg width="63" height="63" viewBox="0 0 63 63" fill="none" xmlns="http://www.w3.org/2000/svg">
<g filter="url(#filter0_d_11929_49911)">
<mask id="mask0_11929_49911" style="mask-type:alpha" maskUnits="userSpaceOnUse" x="7" y="7" width="49" height="49">
<rect x="7.25" y="7.25" width="48" height="48" fill="#D9D9D9"/>
</mask>
<g mask="url(#mask0_11929_49911)">
<path d="M47.2515 31.2495C47.2515 31.4953 47.247 31.7398 47.2368 31.9819C47.2273 32.2097 47.21 32.4356 47.1914 32.6602C47.2296 32.1969 47.2515 31.7265 47.2515 31.2495Z" fill="white"/>
<path fill-rule="evenodd" clip-rule="evenodd" d="M31.251 12C33.9196 12.0001 36.4189 12.5057 38.7539 13.5132C41.1036 14.5272 43.141 15.9008 44.8711 17.6309C46.6009 19.3608 47.9734 21.3972 48.9873 23.7466C49.9949 26.0817 50.5019 28.5807 50.502 31.2495C50.502 33.9184 49.9949 36.4172 48.9873 38.7524C47.9734 41.1022 46.6012 43.1395 44.8711 44.8696C43.141 46.5997 41.1036 47.9719 38.7539 48.9858C36.4188 49.9934 33.9197 50.5004 31.251 50.5005C28.5823 50.5004 26.0831 49.9933 23.748 48.9858C21.3987 47.972 19.3623 46.5994 17.6323 44.8696C15.9022 43.1395 14.5287 41.1023 13.5146 38.7524C12.5071 36.4172 12.0015 33.9184 12.0015 31.2495C12.0015 28.5806 12.507 26.0818 13.5146 23.7466C14.5286 21.3969 15.9022 19.3609 17.6323 17.6309C19.3624 15.9009 21.3984 14.5271 23.748 13.5132C26.0831 12.5057 28.5823 12.0001 31.251 12ZM31.251 14.5005C26.6204 14.5006 22.6541 16.1367 19.396 19.3945C16.1379 22.6527 14.5021 26.6188 14.502 31.2495C14.502 33.3005 14.8409 35.2408 15.5244 37.0635C16.2041 38.8757 17.156 40.5022 18.3809 41.937L18.8423 42.4775L19.4077 42.0454C21.0432 40.7949 22.8743 39.8069 24.9038 39.082C26.92 38.3621 29.0346 37.9996 31.251 37.9995C33.4675 37.9996 35.5833 38.3619 37.5996 39.082C39.629 39.8069 41.4603 40.7949 43.0957 42.0454L43.6611 42.4775L44.1226 41.937C45.3473 40.5022 46.2994 38.8757 46.979 37.0635C47.6624 35.2409 48.0015 33.3004 48.0015 31.2495C48.0014 26.6191 46.3651 22.6525 43.1074 19.3945C39.8494 16.1365 35.8816 14.5007 31.251 14.5005Z" fill="white"/>
<path d="M23.4521 49.6743L23.9092 49.8662C24.1308 49.9551 24.3543 50.0379 24.5786 50.1182C24.1989 49.9822 23.824 49.8348 23.4521 49.6743Z" fill="white"/>
<path d="M17.1006 45.3999C17.213 45.5123 17.3285 45.6229 17.4434 45.7324C18.7255 46.9543 20.1616 47.9936 21.7515 48.8511C20.0188 47.9165 18.4678 46.7672 17.1006 45.3999Z" fill="white"/>
<path d="M46.6802 18.5098C47.4863 19.4888 48.1987 20.5468 48.8174 21.6841L49.2642 22.5527C48.7638 21.5228 48.1912 20.5538 47.5474 19.645C47.4555 19.5154 47.3624 19.3869 47.2676 19.2598C47.1724 19.132 47.0757 19.0056 46.9775 18.8804L46.6802 18.5098Z" fill="white"/>
<path d="M17.1021 17.1006L16.7681 17.4419C16.5973 17.6211 16.4307 17.8045 16.2671 17.9897C16.5358 17.6857 16.8142 17.3885 17.1021 17.1006Z" fill="white"/>
<path d="M23.4507 12.8247L22.5542 13.2363C22.5088 13.2584 22.4631 13.2814 22.418 13.3037C22.7558 13.1366 23.0997 12.9762 23.4507 12.8247Z" fill="white"/>
<path d="M22.8376 29.0289C22.8376 27.1885 23.2758 25.5497 24.1522 24.1124C25.0286 22.6752 25.9926 21.4658 27.0442 20.4842C28.0959 19.5027 29.0599 18.7534 29.9363 18.2363L31.2508 17.4607V20.9312C31.2508 21.5797 31.4699 22.0924 31.9081 22.4692C32.3463 22.846 32.8371 23.0345 33.3804 23.0345C33.6784 23.0345 33.9632 22.9731 34.2349 22.8504C34.5066 22.7277 34.7563 22.5262 34.9842 22.2457L35.4574 21.6673C36.7194 22.4035 37.736 23.4245 38.5072 24.7303C39.2784 26.036 39.664 27.4689 39.664 29.0289C39.664 30.5713 39.2872 31.9779 38.5335 33.2486C37.7798 34.5194 36.7895 35.5228 35.5626 36.259C35.8606 35.8383 36.0928 35.3782 36.2593 34.8787C36.4258 34.3791 36.5091 33.8489 36.5091 33.288C36.5091 32.5869 36.3776 31.9253 36.1147 31.3031C35.8518 30.6808 35.475 30.1243 34.9842 29.6336L31.2508 25.9791L27.5438 29.6336C27.0355 30.1419 26.6499 30.7027 26.387 31.3162C26.1241 31.9297 25.9926 32.5869 25.9926 33.288C25.9926 33.8489 26.0758 34.3791 26.2424 34.8787C26.4089 35.3782 26.6411 35.8383 26.9391 36.259C25.7122 35.5228 24.7219 34.5194 23.9682 33.2486C23.2145 31.9779 22.8376 30.5713 22.8376 29.0289ZM31.2508 28.9237L33.4856 31.1059C33.7836 31.4038 34.0114 31.7369 34.1692 32.1049C34.3269 32.473 34.4058 32.8674 34.4058 33.288C34.4058 34.1469 34.0991 34.8787 33.4856 35.4834C32.8721 36.0881 32.1272 36.3904 31.2508 36.3904C30.3745 36.3904 29.6295 36.0881 29.0161 35.4834C28.4026 34.8787 28.0959 34.1469 28.0959 33.288C28.0959 32.8849 28.1748 32.4949 28.3325 32.1181C28.4903 31.7412 28.7181 31.4038 29.0161 31.1059L31.2508 28.9237Z" fill="white"/>
</g>
</g>
<defs>
<filter id="filter0_d_11929_49911" x="0" y="0" width="62.5" height="62.5" filterUnits="userSpaceOnUse" color-interpolation-filters="sRGB">
<feFlood flood-opacity="0" result="BackgroundImageFix"/>
<feColorMatrix in="SourceAlpha" type="matrix" values="0 0 0 0 0 0 0 0 0 0 0 0 0 0 0 0 0 0 127 0" result="hardAlpha"/>
<feOffset/>
<feGaussianBlur stdDeviation="6"/>
<feComposite in2="hardAlpha" operator="out"/>
<feColorMatrix type="matrix" values="0 0 0 0 0 0 0 0 0 0.478431 0 0 0 0 1 0 0 0 1 0"/>
<feBlend mode="normal" in2="BackgroundImageFix" result="effect1_dropShadow_11929_49911"/>
<feBlend mode="normal" in="SourceGraphic" in2="effect1_dropShadow_11929_49911" result="shape"/>
</filter>
</defs>
</svg>
