<svg width="69" height="60" viewBox="0 0 69 60" fill="none" xmlns="http://www.w3.org/2000/svg">
<g filter="url(#filter0_d_11929_50002)">
<path d="M48 12C48.3978 12 48.7792 12.1581 49.0605 12.4395C49.3419 12.7208 49.5 13.1022 49.5 13.5V16.5H54C54.7957 16.5 55.5585 16.8163 56.1211 17.3789C56.6837 17.9415 57 18.7044 57 19.5V22.5C57 24.4891 56.2102 26.3972 54.8037 27.8037C53.3972 29.2102 51.4891 30 49.5 30H48.7646C46.9571 35.6137 41.9887 39.8153 36 40.4209V45H40.5C40.8978 45 41.2792 45.1581 41.5605 45.4395C41.8419 45.7208 42 46.1022 42 46.5C42 46.8978 41.8419 47.2792 41.5605 47.5605C41.2792 47.8419 40.8978 48 40.5 48H28.5C28.1022 48 27.7208 47.8419 27.4395 47.5605C27.1581 47.2792 27 46.8978 27 46.5C27 46.1022 27.1581 45.7208 27.4395 45.4395C27.7208 45.1581 28.1022 45 28.5 45H33V40.4268C30.0787 40.1312 27.3079 38.9859 25.0303 37.1328C22.7527 35.2797 21.0681 32.8001 20.1846 30H19.5C18.5151 30 17.5398 29.8056 16.6299 29.4287C15.72 29.0518 14.8927 28.5001 14.1963 27.8037C12.7898 26.3972 12 24.4891 12 22.5V19.5C12 18.7044 12.3163 17.9415 12.8789 17.3789C13.4415 16.8163 14.2044 16.5 15 16.5H19.5V13.5C19.5 13.1022 19.6581 12.7208 19.9395 12.4395C20.2208 12.1581 20.6022 12 21 12H48ZM22.5 15V25.5C22.5 28.6826 23.7642 31.7349 26.0146 33.9854C28.2651 36.2358 31.3174 37.5 34.5 37.5C41.0625 37.4513 46.5 31.9911 46.5 25.3311V15H22.5ZM34.4961 20.5107C34.4961 21.0929 34.6927 21.5532 35.0859 21.8916C35.4794 22.2299 35.9204 22.3994 36.4082 22.3994C36.6758 22.3994 36.9318 22.3445 37.1758 22.2344C37.4197 22.1242 37.644 21.9432 37.8486 21.6914L38.2734 21.1719C39.4065 21.8328 40.3192 22.7495 41.0117 23.9219C41.7042 25.0944 42.0508 26.3815 42.0508 27.7822C42.0508 29.1673 41.7119 30.4302 41.0352 31.5713C40.3584 32.7122 39.4697 33.6134 38.3682 34.2744C38.6356 33.8968 38.8437 33.4836 38.9932 33.0352C39.1427 32.5866 39.2178 32.1101 39.2178 31.6064C39.2177 30.977 39.0993 30.3829 38.8633 29.8242C38.6272 29.2656 38.2892 28.7658 37.8486 28.3252L34.4961 25.0439L31.167 28.3252C30.7107 28.7815 30.365 29.2853 30.1289 29.8359C29.8929 30.3867 29.7745 30.977 29.7744 31.6064C29.7744 32.1101 29.8495 32.5866 29.999 33.0352C30.1485 33.4836 30.3566 33.8968 30.624 34.2744C29.5225 33.6134 28.6337 32.7122 27.957 31.5713C27.2803 30.4302 26.9414 29.1673 26.9414 27.7822C26.9414 26.1296 27.3351 24.6578 28.1221 23.3672C28.909 22.0767 29.7745 20.9907 30.7188 20.1094C31.663 19.2281 32.5285 18.5551 33.3154 18.0908L34.4961 17.3945V20.5107ZM15 19.5V22.5C15 23.6935 15.4744 24.8377 16.3184 25.6816C17.1623 26.5256 18.3065 27 19.5 27H19.5732C19.5245 26.5 19.5 26 19.5 25.5V19.5H15ZM49.5 19.5V25.3311C49.4991 25.8886 49.4678 26.4459 49.4062 27H49.5C50.6935 27 51.8377 26.5256 52.6816 25.6816C53.5256 24.8377 54 23.6935 54 22.5V19.5H49.5Z" fill="white"/>
</g>
<defs>
<filter id="filter0_d_11929_50002" x="0" y="0" width="69" height="60" filterUnits="userSpaceOnUse" color-interpolation-filters="sRGB">
<feFlood flood-opacity="0" result="BackgroundImageFix"/>
<feColorMatrix in="SourceAlpha" type="matrix" values="0 0 0 0 0 0 0 0 0 0 0 0 0 0 0 0 0 0 127 0" result="hardAlpha"/>
<feOffset/>
<feGaussianBlur stdDeviation="6"/>
<feComposite in2="hardAlpha" operator="out"/>
<feColorMatrix type="matrix" values="0 0 0 0 0.886275 0 0 0 0 0.686275 0 0 0 0 0.180392 0 0 0 1 0"/>
<feBlend mode="normal" in2="BackgroundImageFix" result="effect1_dropShadow_11929_50002"/>
<feBlend mode="normal" in="SourceGraphic" in2="effect1_dropShadow_11929_50002" result="shape"/>
</filter>
</defs>
</svg>
