<svg width="108" height="108" viewBox="0 0 108 108" fill="none" xmlns="http://www.w3.org/2000/svg">
<path fill-rule="evenodd" clip-rule="evenodd" d="M27.2078 23.0903C28.0456 27.2065 31.6232 30.8178 35.8404 32.9611C32.0986 33.2799 29.0002 35.8543 27.9106 39.3188C25.2156 33.7251 25.974 27.9404 27.2078 23.0903ZM30.302 42.0626C30.302 38.5699 33.1334 35.7385 36.6261 35.7385H71.7602C75.2529 35.7385 78.0843 38.5699 78.0843 42.0626V57.5216C78.0843 61.0143 75.2529 63.8457 71.7602 63.8457H58.6414C60.5885 65.6921 62.4468 68.321 62.6127 71.266C62.8545 75.5511 59.5808 78.4574 55.837 78.1782C52.4069 77.9217 49.6547 76.0359 46.7681 74.0578C44.1446 72.2601 41.4101 70.3863 37.9546 69.5904C33.5276 68.5705 28.8724 72.0513 27.077 79.0158C27.7811 79.6093 29.7523 78.3877 29.7523 78.3877C29.716 79.344 29.0866 79.8627 28.4045 80.4247C27.767 80.95 27.0836 81.5132 26.7955 82.507C26.6128 83.2584 26.1448 83.9109 25.489 84.3286C24.8332 84.7463 24.0402 84.897 23.2751 84.7493C24.1905 83.8684 24.2097 81.8308 24.0848 81.0755C23.5226 77.6722 24.0499 76.1883 24.929 75.3502C24.8937 77.5146 25.7737 78.2128 25.7737 78.2128C28.9418 69.6947 33.5887 67.9844 37.3107 68.0904C41.2598 68.2031 44.8337 70.4205 48.0624 72.4236C50.4893 73.9293 52.7212 75.314 54.7706 75.5926C58.2237 76.0627 59.9475 74.5334 59.9505 71.5972C59.9566 67.3871 52.8188 63.861 52.7879 63.8457H36.6261C33.1334 63.8457 30.302 61.0143 30.302 57.5216V42.0626ZM37.3289 41.36H68.2469V44.1707H37.3289V41.36ZM37.3288 48.3868H71.0575V51.1975H37.3288V48.3868ZM62.6253 55.4136H37.3288V58.2243H62.6253V55.4136ZM72.5459 32.9611C76.7631 30.8178 80.3407 27.2065 81.1784 23.0903C82.4123 27.9404 83.1706 33.7251 80.4757 39.3188C79.386 35.8543 76.2876 33.2799 72.5459 32.9611Z" fill="white"/>
</svg>
